<?xml version="1.0" encoding="UTF-8"?>
<svg xmlns="http://www.w3.org/2000/svg" xmlns:xlink="http://www.w3.org/1999/xlink" width="212pt" height="106pt" viewBox="0 0 212 106" version="1.1">
<defs>
<clipPath id="clip1">
  <path d="M 86 0 L 211.984375 0 L 211.984375 78.601562 L 86 78.601562 Z M 86 0 "/>
</clipPath>
<clipPath id="clip2">
  <path d="M 0 98.8125 L 6.71875 98.8125 L 6.71875 106 L 0 106 Z M 0 98.8125 "/>
</clipPath>
<clipPath id="clip3">
  <path d="M 7 98.8125 L 8.957031 98.8125 L 8.957031 106 L 7 106 Z M 7 98.8125 "/>
</clipPath>
<clipPath id="clip4">
  <path d="M 9 98.8125 L 16.421875 98.8125 L 16.421875 106 L 9 106 Z M 9 98.8125 "/>
</clipPath>
<clipPath id="clip5">
  <path d="M 16.421875 98.8125 L 23.886719 98.8125 L 23.886719 106 L 16.421875 106 Z M 16.421875 98.8125 "/>
</clipPath>
<clipPath id="clip6">
  <path d="M 27 98.8125 L 29 98.8125 L 29 106 L 27 106 Z M 27 98.8125 "/>
</clipPath>
<clipPath id="clip7">
  <path d="M 29.113281 98.8125 L 36.578125 98.8125 L 36.578125 106 L 29.113281 106 Z M 29.113281 98.8125 "/>
</clipPath>
<clipPath id="clip8">
  <path d="M 36.578125 98.066406 L 44 98.066406 L 44 106 L 36.578125 106 Z M 36.578125 98.066406 "/>
</clipPath>
<clipPath id="clip9">
  <path d="M 44 98.8125 L 50.761719 98.8125 L 50.761719 106 L 44 106 Z M 44 98.8125 "/>
</clipPath>
<clipPath id="clip10">
  <path d="M 51 98.8125 L 58 98.8125 L 58 106 L 51 106 Z M 51 98.8125 "/>
</clipPath>
<clipPath id="clip11">
  <path d="M 57.480469 98.8125 L 66 98.8125 L 66 106 L 57.480469 106 Z M 57.480469 98.8125 "/>
</clipPath>
<clipPath id="clip12">
  <path d="M 66 98.8125 L 73 98.8125 L 73 106 L 66 106 Z M 66 98.8125 "/>
</clipPath>
<clipPath id="clip13">
  <path d="M 73.15625 98.066406 L 80.621094 98.066406 L 80.621094 106 L 73.15625 106 Z M 73.15625 98.066406 "/>
</clipPath>
<clipPath id="clip14">
  <path d="M 80.621094 98.8125 L 87.339844 98.8125 L 87.339844 106 L 80.621094 106 Z M 80.621094 98.8125 "/>
</clipPath>
<clipPath id="clip15">
  <path d="M 90.324219 98.066406 L 97.789062 98.066406 L 97.789062 106 L 90.324219 106 Z M 90.324219 98.066406 "/>
</clipPath>
<clipPath id="clip16">
  <path d="M 97.789062 98.066406 L 105 98.066406 L 105 106 L 97.789062 106 Z M 97.789062 98.066406 "/>
</clipPath>
<clipPath id="clip17">
  <path d="M 105.253906 98.8125 L 112.71875 98.8125 L 112.71875 106 L 105.253906 106 Z M 105.253906 98.8125 "/>
</clipPath>
<clipPath id="clip18">
  <path d="M 112.71875 98.8125 L 119.4375 98.8125 L 119.4375 106 L 112.71875 106 Z M 112.71875 98.8125 "/>
</clipPath>
<clipPath id="clip19">
  <path d="M 119.4375 98.066406 L 126.902344 98.066406 L 126.902344 106 L 119.4375 106 Z M 119.4375 98.066406 "/>
</clipPath>
<clipPath id="clip20">
  <path d="M 127 98.8125 L 134 98.8125 L 134 106 L 127 106 Z M 127 98.8125 "/>
</clipPath>
<clipPath id="clip21">
  <path d="M 133.621094 98.8125 L 141.832031 98.8125 L 141.832031 106 L 133.621094 106 Z M 133.621094 98.8125 "/>
</clipPath>
<clipPath id="clip22">
  <path d="M 140 98.8125 L 147 98.8125 L 147 106 L 140 106 Z M 140 98.8125 "/>
</clipPath>
<clipPath id="clip23">
  <path d="M 147.054688 98.8125 L 148.550781 98.8125 L 148.550781 106 L 147.054688 106 Z M 147.054688 98.8125 "/>
</clipPath>
<clipPath id="clip24">
  <path d="M 149 98.066406 L 156.761719 98.066406 L 156.761719 106 L 149 106 Z M 149 98.066406 "/>
</clipPath>
<clipPath id="clip25">
  <path d="M 156.015625 98.8125 L 163.480469 98.8125 L 163.480469 106 L 156.015625 106 Z M 156.015625 98.8125 "/>
</clipPath>
<clipPath id="clip26">
  <path d="M 167.210938 98.066406 L 174.675781 98.066406 L 174.675781 106 L 167.210938 106 Z M 167.210938 98.066406 "/>
</clipPath>
<clipPath id="clip27">
  <path d="M 174.675781 98.8125 L 181.394531 98.8125 L 181.394531 106 L 174.675781 106 Z M 174.675781 98.8125 "/>
</clipPath>
<clipPath id="clip28">
  <path d="M 185.125 98.8125 L 187.367188 98.8125 L 187.367188 106 L 185.125 106 Z M 185.125 98.8125 "/>
</clipPath>
<clipPath id="clip29">
  <path d="M 187.367188 98.8125 L 194.832031 98.8125 L 194.832031 106 L 187.367188 106 Z M 187.367188 98.8125 "/>
</clipPath>
<clipPath id="clip30">
  <path d="M 194.832031 98.8125 L 202 98.8125 L 202 106 L 194.832031 106 Z M 194.832031 98.8125 "/>
</clipPath>
<clipPath id="clip31">
  <path d="M 202 98.8125 L 203.789062 98.8125 L 203.789062 106 L 202 106 Z M 202 98.8125 "/>
</clipPath>
<clipPath id="clip32">
  <path d="M 203.789062 98.8125 L 211.984375 98.8125 L 211.984375 106 L 203.789062 106 Z M 203.789062 98.8125 "/>
</clipPath>
<clipPath id="clip33">
  <path d="M 168 81 L 211.984375 81 L 211.984375 95 L 168 95 Z M 168 81 "/>
</clipPath>
</defs>
<g id="surface1">
<path style=" stroke:none;fill-rule:nonzero;fill:rgb(4.705882%,18.823529%,43.529412%);fill-opacity:1;" d="M 4.097656 0.00390625 C 1.84375 0.00390625 0 1.851562 0 4.113281 L 0 74.234375 C 0 76.492188 1.84375 78.339844 4.097656 78.339844 L 81.277344 78.339844 L 81.277344 0.00390625 "/>
<g clip-path="url(#clip1)" clip-rule="nonzero">
<path style=" stroke:none;fill-rule:nonzero;fill:rgb(98.823529%,76.470588%,0%);fill-opacity:1;" d="M 207.730469 0.00390625 L 86.332031 0.00390625 L 86.332031 78.339844 L 207.730469 78.339844 C 209.988281 78.339844 211.832031 76.492188 211.832031 74.234375 L 211.832031 4.113281 C 211.832031 1.851562 209.988281 0.00390625 207.730469 0.00390625 "/>
</g>
<path style=" stroke:none;fill-rule:nonzero;fill:rgb(4.705882%,18.823529%,43.529412%);fill-opacity:1;" d="M 99.386719 68.898438 L 99.386719 9.625 L 110.398438 9.625 L 110.398438 58.8125 L 130.285156 58.8125 L 130.285156 68.898438 "/>
<path style=" stroke:none;fill-rule:nonzero;fill:rgb(4.705882%,18.823529%,43.529412%);fill-opacity:1;" d="M 140.875 68.898438 L 151.890625 68.898438 L 151.890625 9.621094 L 140.875 9.621094 Z M 140.875 68.898438 "/>
<path style=" stroke:none;fill-rule:nonzero;fill:rgb(4.705882%,18.823529%,43.529412%);fill-opacity:1;" d="M 188.582031 47.765625 L 199.292969 47.765625 C 199.292969 48.023438 199.304688 48.402344 199.332031 48.902344 C 199.355469 49.402344 199.367188 49.796875 199.367188 50.078125 C 199.367188 56.929688 197.925781 62.015625 195.050781 65.339844 C 192.171875 68.664062 187.761719 70.324219 181.824219 70.324219 C 179.011719 70.324219 176.59375 69.957031 174.570312 69.226562 C 172.550781 68.496094 170.808594 67.359375 169.351562 65.820312 C 167.355469 63.765625 165.949219 60.945312 165.128906 57.351562 C 164.308594 53.761719 163.902344 47.496094 163.902344 38.566406 C 163.902344 32.460938 164.148438 27.605469 164.628906 24 C 165.117188 20.394531 165.871094 17.707031 166.894531 15.933594 C 168.484375 13.214844 170.453125 11.242188 172.808594 10.027344 C 175.160156 8.808594 178.167969 8.199219 181.824219 8.199219 C 187.816406 8.199219 192.171875 9.765625 194.898438 12.894531 C 197.621094 16.023438 198.996094 21.054688 199.019531 27.980469 L 188.351562 27.980469 L 188.351562 26.558594 C 188.351562 23.347656 187.835938 20.957031 186.796875 19.382812 C 185.761719 17.800781 184.183594 17.011719 182.054688 17.011719 C 179.421875 17.011719 177.625 18.105469 176.664062 20.285156 C 175.707031 22.464844 175.222656 28.496094 175.222656 38.375 C 175.222656 49.050781 175.691406 55.542969 176.625 57.851562 C 177.558594 60.160156 179.34375 61.316406 181.980469 61.316406 C 184.4375 61.316406 186.148438 60.414062 187.125 58.601562 C 188.09375 56.792969 188.582031 53.449219 188.582031 48.578125 "/>
<g clip-path="url(#clip2)" clip-rule="nonzero">
<path style=" stroke:none;fill-rule:nonzero;fill:rgb(4.705882%,18.823529%,43.529412%);fill-opacity:1;" d="M 0.632812 105.746094 L 0.632812 98.9375 L 1.972656 98.9375 L 1.972656 104.277344 L 6.699219 104.277344 L 6.699219 105.746094 "/>
</g>
<g clip-path="url(#clip3)" clip-rule="nonzero">
<path style=" stroke:none;fill-rule:nonzero;fill:rgb(4.705882%,18.823529%,43.529412%);fill-opacity:1;" d="M 7.421875 105.746094 L 8.757812 105.746094 L 8.757812 98.9375 L 7.421875 98.9375 Z M 7.421875 105.746094 "/>
</g>
<g clip-path="url(#clip4)" clip-rule="nonzero">
<path style=" stroke:none;fill-rule:nonzero;fill:rgb(4.705882%,18.823529%,43.529412%);fill-opacity:1;" d="M 11.011719 100.40625 L 11.011719 101.953125 L 15.425781 101.953125 L 15.425781 103.421875 L 11.011719 103.421875 L 11.011719 105.746094 L 9.671875 105.746094 L 9.671875 98.9375 L 16.027344 98.9375 L 16.027344 100.40625 "/>
</g>
<g clip-path="url(#clip5)" clip-rule="nonzero">
<path style=" stroke:none;fill-rule:nonzero;fill:rgb(4.705882%,18.823529%,43.529412%);fill-opacity:1;" d="M 16.636719 105.746094 L 16.636719 98.9375 L 23.050781 98.9375 L 23.050781 100.40625 L 17.972656 100.40625 L 17.972656 101.628906 L 22.441406 101.628906 L 22.441406 102.953125 L 17.972656 102.953125 L 17.972656 104.277344 L 23.246094 104.277344 L 23.246094 105.746094 "/>
</g>
<g clip-path="url(#clip6)" clip-rule="nonzero">
<path style=" stroke:none;fill-rule:nonzero;fill:rgb(4.705882%,18.823529%,43.529412%);fill-opacity:1;" d="M 27.472656 105.746094 L 28.808594 105.746094 L 28.808594 98.9375 L 27.472656 98.9375 Z M 27.472656 105.746094 "/>
</g>
<g clip-path="url(#clip7)" clip-rule="nonzero">
<path style=" stroke:none;fill-rule:nonzero;fill:rgb(4.705882%,18.823529%,43.529412%);fill-opacity:1;" d="M 34.914062 105.746094 L 31.058594 100.988281 L 31.058594 105.746094 L 29.722656 105.746094 L 29.722656 98.9375 L 31.058594 98.9375 L 34.914062 103.695312 L 34.914062 98.9375 L 36.25 98.9375 L 36.25 105.746094 "/>
</g>
<g clip-path="url(#clip8)" clip-rule="nonzero">
<path style=" stroke:none;fill-rule:nonzero;fill:rgb(4.705882%,18.823529%,43.529412%);fill-opacity:1;" d="M 43.355469 103.546875 C 43.355469 103.882812 43.285156 104.203125 43.144531 104.5 C 43 104.800781 42.785156 105.058594 42.492188 105.285156 C 42.195312 105.511719 41.828125 105.683594 41.390625 105.8125 C 40.945312 105.9375 40.421875 106 39.820312 106 C 39.511719 106 39.191406 105.964844 38.871094 105.902344 C 38.589844 105.851562 38.285156 105.769531 37.949219 105.660156 C 37.613281 105.546875 37.289062 105.390625 36.972656 105.183594 L 37.4375 103.820312 C 37.71875 104 37.996094 104.144531 38.28125 104.242188 C 38.558594 104.34375 38.816406 104.417969 39.042969 104.464844 C 39.3125 104.515625 39.570312 104.546875 39.820312 104.550781 C 40.582031 104.550781 41.148438 104.464844 41.519531 104.289062 C 41.894531 104.113281 42.078125 103.882812 42.078125 103.59375 C 42.078125 103.417969 42.023438 103.28125 41.90625 103.195312 C 41.789062 103.113281 41.609375 103.0625 41.367188 103.050781 C 41.308594 103.042969 41.203125 103.035156 41.050781 103.027344 C 40.894531 103.019531 40.707031 103.007812 40.480469 102.992188 C 40.257812 102.980469 40.007812 102.96875 39.734375 102.953125 C 39.460938 102.941406 39.179688 102.925781 38.882812 102.90625 C 38.589844 102.886719 38.316406 102.835938 38.074219 102.75 C 37.828125 102.664062 37.617188 102.542969 37.433594 102.382812 C 37.253906 102.226562 37.113281 102.03125 37.011719 101.800781 C 36.910156 101.570312 36.859375 101.300781 36.859375 100.988281 C 36.859375 100.675781 36.9375 100.382812 37.097656 100.109375 C 37.261719 99.832031 37.488281 99.589844 37.785156 99.386719 C 38.082031 99.183594 38.441406 99.019531 38.867188 98.90625 C 39.289062 98.789062 39.761719 98.730469 40.285156 98.730469 C 40.59375 98.730469 40.90625 98.757812 41.226562 98.820312 C 41.503906 98.867188 41.804688 98.945312 42.144531 99.042969 C 42.480469 99.136719 42.808594 99.28125 43.128906 99.472656 L 42.726562 100.8125 C 42.570312 100.730469 42.390625 100.648438 42.195312 100.566406 C 41.996094 100.492188 41.789062 100.425781 41.574219 100.367188 C 41.359375 100.308594 41.136719 100.261719 40.917969 100.230469 C 40.699219 100.195312 40.484375 100.183594 40.285156 100.183594 C 39.980469 100.183594 39.699219 100.199219 39.433594 100.234375 C 39.171875 100.269531 38.949219 100.324219 38.753906 100.394531 C 38.5625 100.464844 38.410156 100.554688 38.300781 100.660156 C 38.191406 100.761719 38.136719 100.878906 38.136719 101.007812 C 38.136719 101.175781 38.191406 101.300781 38.304688 101.386719 C 38.417969 101.472656 38.582031 101.519531 38.800781 101.53125 C 39.042969 101.546875 39.386719 101.566406 39.824219 101.589844 C 40.269531 101.617188 40.789062 101.648438 41.394531 101.679688 C 41.699219 101.699219 41.972656 101.753906 42.214844 101.835938 C 42.453125 101.917969 42.660156 102.039062 42.828125 102.195312 C 43 102.351562 43.128906 102.542969 43.21875 102.769531 C 43.3125 102.996094 43.355469 103.253906 43.355469 103.546875 "/>
</g>
<g clip-path="url(#clip9)" clip-rule="nonzero">
<path style=" stroke:none;fill-rule:nonzero;fill:rgb(4.705882%,18.823529%,43.529412%);fill-opacity:1;" d="M 50.34375 102.339844 C 50.34375 102.835938 50.269531 103.300781 50.121094 103.738281 C 49.976562 104.175781 49.765625 104.558594 49.488281 104.890625 C 49.21875 105.21875 48.886719 105.484375 48.496094 105.679688 C 48.105469 105.871094 47.664062 105.972656 47.179688 105.972656 C 46.691406 105.972656 46.253906 105.871094 45.863281 105.679688 C 45.472656 105.484375 45.136719 105.21875 44.863281 104.890625 C 44.585938 104.558594 44.371094 104.175781 44.226562 103.738281 C 44.078125 103.300781 44.003906 102.835938 44.003906 102.339844 L 44.003906 98.9375 L 45.34375 98.9375 L 45.34375 102.339844 C 45.34375 102.632812 45.378906 102.910156 45.453125 103.171875 C 45.527344 103.4375 45.640625 103.667969 45.789062 103.871094 C 45.9375 104.070312 46.128906 104.230469 46.359375 104.347656 C 46.589844 104.464844 46.863281 104.523438 47.179688 104.523438 C 47.492188 104.523438 47.761719 104.464844 47.992188 104.347656 C 48.222656 104.230469 48.410156 104.070312 48.558594 103.871094 C 48.710938 103.667969 48.820312 103.4375 48.894531 103.171875 C 48.96875 102.910156 49.003906 102.632812 49.003906 102.339844 L 49.003906 98.9375 L 50.34375 98.9375 "/>
</g>
<g clip-path="url(#clip10)" clip-rule="nonzero">
<path style=" stroke:none;fill-rule:nonzero;fill:rgb(4.705882%,18.823529%,43.529412%);fill-opacity:1;" d="M 56.484375 101.171875 C 56.484375 101.011719 56.460938 100.882812 56.414062 100.777344 C 56.371094 100.679688 56.316406 100.601562 56.25 100.542969 C 56.179688 100.488281 56.113281 100.453125 56.046875 100.433594 C 55.976562 100.414062 55.925781 100.40625 55.882812 100.40625 L 52.632812 100.40625 L 52.632812 101.953125 L 55.882812 101.953125 C 55.914062 101.953125 55.960938 101.941406 56.027344 101.917969 C 56.09375 101.894531 56.160156 101.855469 56.226562 101.796875 C 56.296875 101.738281 56.355469 101.660156 56.410156 101.554688 C 56.457031 101.457031 56.484375 101.328125 56.484375 101.171875 M 57.824219 101.171875 C 57.824219 101.472656 57.792969 101.734375 57.734375 101.960938 C 57.671875 102.1875 57.59375 102.382812 57.492188 102.550781 C 57.394531 102.714844 57.28125 102.855469 57.15625 102.964844 C 57.03125 103.074219 56.90625 103.160156 56.78125 103.226562 L 57.710938 105.746094 L 56.28125 105.746094 L 55.425781 103.421875 L 52.632812 103.421875 L 52.632812 105.746094 L 51.292969 105.746094 L 51.292969 98.9375 L 56.078125 98.9375 C 56.222656 98.9375 56.394531 98.96875 56.59375 99.03125 C 56.792969 99.097656 56.984375 99.210938 57.167969 99.378906 C 57.351562 99.542969 57.503906 99.769531 57.632812 100.058594 C 57.757812 100.347656 57.824219 100.71875 57.824219 101.171875 "/>
</g>
<g clip-path="url(#clip11)" clip-rule="nonzero">
<path style=" stroke:none;fill-rule:nonzero;fill:rgb(4.705882%,18.823529%,43.529412%);fill-opacity:1;" d="M 61.855469 100.207031 L 60.640625 102.917969 L 63.074219 102.917969 Z M 64.34375 105.746094 L 63.726562 104.382812 L 59.976562 104.382812 L 59.359375 105.746094 L 57.9375 105.746094 L 60.996094 98.9375 L 62.710938 98.9375 L 65.765625 105.746094 "/>
</g>
<g clip-path="url(#clip12)" clip-rule="nonzero">
<path style=" stroke:none;fill-rule:nonzero;fill:rgb(4.705882%,18.823529%,43.529412%);fill-opacity:1;" d="M 71.222656 105.746094 L 67.371094 100.988281 L 67.371094 105.746094 L 66.035156 105.746094 L 66.035156 98.9375 L 67.371094 98.9375 L 71.222656 103.695312 L 71.222656 98.9375 L 72.5625 98.9375 L 72.5625 105.746094 "/>
</g>
<g clip-path="url(#clip13)" clip-rule="nonzero">
<path style=" stroke:none;fill-rule:nonzero;fill:rgb(4.705882%,18.823529%,43.529412%);fill-opacity:1;" d="M 80.226562 103.957031 C 80.09375 104.25 79.921875 104.515625 79.710938 104.757812 C 79.503906 105.003906 79.265625 105.214844 78.984375 105.394531 C 78.703125 105.578125 78.390625 105.71875 78.046875 105.820312 C 77.703125 105.917969 77.324219 105.972656 76.914062 105.972656 C 76.332031 105.972656 75.808594 105.871094 75.351562 105.679688 C 74.890625 105.484375 74.503906 105.21875 74.1875 104.890625 C 73.871094 104.558594 73.628906 104.175781 73.457031 103.738281 C 73.292969 103.300781 73.210938 102.835938 73.210938 102.339844 C 73.210938 101.847656 73.292969 101.382812 73.457031 100.945312 C 73.628906 100.507812 73.871094 100.125 74.1875 99.789062 C 74.503906 99.460938 74.890625 99.195312 75.351562 99.003906 C 75.808594 98.808594 76.332031 98.710938 76.914062 98.710938 C 77.308594 98.710938 77.675781 98.757812 78.015625 98.851562 C 78.351562 98.945312 78.65625 99.078125 78.929688 99.253906 C 79.207031 99.421875 79.449219 99.625 79.65625 99.855469 C 79.863281 100.085938 80.035156 100.335938 80.171875 100.609375 L 78.96875 101.386719 C 78.894531 101.226562 78.792969 101.074219 78.660156 100.929688 C 78.53125 100.789062 78.378906 100.664062 78.195312 100.558594 C 78.015625 100.457031 77.816406 100.375 77.585938 100.3125 C 77.363281 100.25 77.121094 100.21875 76.859375 100.21875 C 76.484375 100.21875 76.160156 100.277344 75.875 100.390625 C 75.59375 100.503906 75.359375 100.660156 75.175781 100.851562 C 74.992188 101.042969 74.851562 101.273438 74.753906 101.527344 C 74.664062 101.785156 74.617188 102.054688 74.617188 102.339844 C 74.617188 102.621094 74.664062 102.886719 74.753906 103.144531 C 74.851562 103.402344 74.992188 103.625 75.175781 103.820312 C 75.359375 104.015625 75.59375 104.171875 75.875 104.289062 C 76.160156 104.40625 76.484375 104.464844 76.859375 104.464844 C 77.136719 104.464844 77.390625 104.429688 77.621094 104.359375 C 77.855469 104.292969 78.0625 104.199219 78.246094 104.082031 C 78.429688 103.964844 78.585938 103.832031 78.71875 103.671875 C 78.851562 103.519531 78.949219 103.351562 79.011719 103.179688 "/>
</g>
<g clip-path="url(#clip14)" clip-rule="nonzero">
<path style=" stroke:none;fill-rule:nonzero;fill:rgb(4.705882%,18.823529%,43.529412%);fill-opacity:1;" d="M 80.679688 105.746094 L 80.679688 98.9375 L 87.097656 98.9375 L 87.097656 100.40625 L 82.023438 100.40625 L 82.023438 101.628906 L 86.488281 101.628906 L 86.488281 102.953125 L 82.023438 102.953125 L 82.023438 104.277344 L 87.292969 104.277344 L 87.292969 105.746094 "/>
</g>
<g clip-path="url(#clip15)" clip-rule="nonzero">
<path style=" stroke:none;fill-rule:nonzero;fill:rgb(4.705882%,18.823529%,43.529412%);fill-opacity:1;" d="M 97.65625 103.957031 C 97.527344 104.25 97.355469 104.515625 97.148438 104.757812 C 96.941406 105.003906 96.695312 105.214844 96.414062 105.394531 C 96.136719 105.578125 95.828125 105.71875 95.480469 105.820312 C 95.136719 105.917969 94.757812 105.972656 94.347656 105.972656 C 93.765625 105.972656 93.242188 105.871094 92.785156 105.679688 C 92.324219 105.484375 91.9375 105.21875 91.617188 104.890625 C 91.300781 104.558594 91.058594 104.175781 90.890625 103.738281 C 90.726562 103.300781 90.640625 102.835938 90.640625 102.339844 C 90.640625 101.847656 90.726562 101.382812 90.890625 100.945312 C 91.058594 100.507812 91.300781 100.125 91.617188 99.789062 C 91.9375 99.460938 92.324219 99.195312 92.785156 99.003906 C 93.242188 98.808594 93.765625 98.710938 94.347656 98.710938 C 94.746094 98.710938 95.109375 98.757812 95.445312 98.851562 C 95.785156 98.945312 96.089844 99.078125 96.363281 99.253906 C 96.636719 99.421875 96.878906 99.625 97.085938 99.855469 C 97.296875 100.085938 97.46875 100.335938 97.605469 100.609375 L 96.402344 101.386719 C 96.324219 101.226562 96.222656 101.074219 96.09375 100.929688 C 95.964844 100.789062 95.808594 100.664062 95.628906 100.558594 C 95.449219 100.457031 95.246094 100.375 95.023438 100.3125 C 94.792969 100.25 94.550781 100.21875 94.292969 100.21875 C 93.917969 100.21875 93.589844 100.277344 93.308594 100.390625 C 93.027344 100.503906 92.792969 100.660156 92.605469 100.851562 C 92.421875 101.042969 92.285156 101.273438 92.191406 101.527344 C 92.097656 101.785156 92.050781 102.054688 92.050781 102.339844 C 92.050781 102.621094 92.097656 102.886719 92.191406 103.144531 C 92.285156 103.402344 92.421875 103.625 92.605469 103.820312 C 92.792969 104.015625 93.027344 104.171875 93.308594 104.289062 C 93.589844 104.40625 93.917969 104.464844 94.292969 104.464844 C 94.566406 104.464844 94.820312 104.429688 95.054688 104.359375 C 95.285156 104.292969 95.496094 104.199219 95.679688 104.082031 C 95.859375 103.964844 96.019531 103.832031 96.148438 103.671875 C 96.28125 103.519531 96.378906 103.351562 96.449219 103.179688 "/>
</g>
<g clip-path="url(#clip16)" clip-rule="nonzero">
<path style=" stroke:none;fill-rule:nonzero;fill:rgb(4.705882%,18.823529%,43.529412%);fill-opacity:1;" d="M 103.578125 102.339844 C 103.578125 102.046875 103.53125 101.769531 103.441406 101.507812 C 103.355469 101.246094 103.222656 101.015625 103.039062 100.8125 C 102.863281 100.613281 102.636719 100.453125 102.363281 100.335938 C 102.09375 100.21875 101.777344 100.160156 101.417969 100.160156 C 101.058594 100.160156 100.738281 100.21875 100.46875 100.335938 C 100.199219 100.453125 99.972656 100.613281 99.792969 100.8125 C 99.609375 101.015625 99.476562 101.246094 99.390625 101.507812 C 99.300781 101.769531 99.253906 102.046875 99.253906 102.339844 C 99.253906 102.632812 99.300781 102.910156 99.390625 103.171875 C 99.476562 103.4375 99.609375 103.667969 99.792969 103.871094 C 99.972656 104.070312 100.199219 104.230469 100.46875 104.347656 C 100.738281 104.464844 101.058594 104.523438 101.417969 104.523438 C 101.777344 104.523438 102.09375 104.464844 102.363281 104.347656 C 102.636719 104.230469 102.863281 104.070312 103.039062 103.871094 C 103.222656 103.667969 103.355469 103.4375 103.441406 103.171875 C 103.53125 102.910156 103.578125 102.632812 103.578125 102.339844 M 104.984375 102.339844 C 104.984375 102.835938 104.902344 103.300781 104.742188 103.738281 C 104.578125 104.175781 104.34375 104.558594 104.039062 104.890625 C 103.730469 105.21875 103.359375 105.484375 102.914062 105.679688 C 102.476562 105.871094 101.972656 105.972656 101.417969 105.972656 C 100.859375 105.972656 100.359375 105.871094 99.917969 105.679688 C 99.476562 105.484375 99.101562 105.21875 98.792969 104.890625 C 98.488281 104.558594 98.253906 104.175781 98.09375 103.738281 C 97.929688 103.300781 97.847656 102.835938 97.847656 102.339844 C 97.847656 101.847656 97.929688 101.382812 98.09375 100.945312 C 98.253906 100.507812 98.488281 100.125 98.792969 99.789062 C 99.101562 99.460938 99.476562 99.195312 99.917969 99.003906 C 100.359375 98.808594 100.859375 98.710938 101.417969 98.710938 C 101.972656 98.710938 102.476562 98.808594 102.914062 99.003906 C 103.359375 99.195312 103.730469 99.460938 104.039062 99.789062 C 104.34375 100.125 104.578125 100.507812 104.742188 100.945312 C 104.902344 101.382812 104.984375 101.847656 104.984375 102.339844 "/>
</g>
<g clip-path="url(#clip17)" clip-rule="nonzero">
<path style=" stroke:none;fill-rule:nonzero;fill:rgb(4.705882%,18.823529%,43.529412%);fill-opacity:1;" d="M 110.667969 101.171875 C 110.667969 101.011719 110.644531 100.882812 110.601562 100.777344 C 110.554688 100.679688 110.5 100.601562 110.433594 100.542969 C 110.367188 100.488281 110.300781 100.453125 110.230469 100.433594 C 110.164062 100.414062 110.109375 100.40625 110.066406 100.40625 L 106.820312 100.40625 L 106.820312 101.953125 L 110.066406 101.953125 C 110.097656 101.953125 110.144531 101.941406 110.214844 101.917969 C 110.277344 101.894531 110.34375 101.855469 110.414062 101.796875 C 110.480469 101.738281 110.542969 101.660156 110.59375 101.554688 C 110.640625 101.457031 110.667969 101.328125 110.667969 101.171875 M 112.007812 101.171875 C 112.007812 101.472656 111.976562 101.734375 111.917969 101.960938 C 111.855469 102.1875 111.777344 102.382812 111.675781 102.550781 C 111.578125 102.714844 111.46875 102.855469 111.34375 102.964844 C 111.214844 103.074219 111.089844 103.160156 110.964844 103.226562 L 111.894531 105.746094 L 110.464844 105.746094 L 109.613281 103.421875 L 106.820312 103.421875 L 106.820312 105.746094 L 105.476562 105.746094 L 105.476562 98.9375 L 110.265625 98.9375 C 110.40625 98.9375 110.578125 98.96875 110.777344 99.03125 C 110.980469 99.097656 111.171875 99.210938 111.355469 99.378906 C 111.539062 99.542969 111.691406 99.769531 111.820312 100.058594 C 111.945312 100.347656 112.007812 100.71875 112.007812 101.171875 "/>
</g>
<g clip-path="url(#clip18)" clip-rule="nonzero">
<path style=" stroke:none;fill-rule:nonzero;fill:rgb(4.705882%,18.823529%,43.529412%);fill-opacity:1;" d="M 117.957031 101.171875 C 117.957031 101.011719 117.9375 100.882812 117.890625 100.777344 C 117.84375 100.679688 117.789062 100.601562 117.722656 100.542969 C 117.65625 100.488281 117.589844 100.453125 117.519531 100.433594 C 117.453125 100.414062 117.398438 100.40625 117.359375 100.40625 L 114.109375 100.40625 L 114.109375 101.953125 L 117.359375 101.953125 C 117.386719 101.953125 117.4375 101.941406 117.503906 101.917969 C 117.566406 101.894531 117.632812 101.855469 117.703125 101.796875 C 117.773438 101.738281 117.832031 101.660156 117.882812 101.554688 C 117.933594 101.457031 117.957031 101.328125 117.957031 101.171875 M 119.296875 101.171875 C 119.296875 101.621094 119.234375 101.992188 119.101562 102.28125 C 118.96875 102.574219 118.808594 102.804688 118.625 102.972656 C 118.4375 103.140625 118.246094 103.257812 118.050781 103.324219 C 117.851562 103.390625 117.6875 103.421875 117.554688 103.421875 L 114.109375 103.421875 L 114.109375 105.746094 L 112.769531 105.746094 L 112.769531 98.9375 L 117.554688 98.9375 C 117.699219 98.9375 117.871094 98.96875 118.070312 99.03125 C 118.269531 99.097656 118.460938 99.210938 118.644531 99.378906 C 118.828125 99.542969 118.980469 99.769531 119.105469 100.058594 C 119.234375 100.347656 119.296875 100.71875 119.296875 101.171875 "/>
</g>
<g clip-path="url(#clip19)" clip-rule="nonzero">
<path style=" stroke:none;fill-rule:nonzero;fill:rgb(4.705882%,18.823529%,43.529412%);fill-opacity:1;" d="M 125.398438 102.339844 C 125.398438 102.046875 125.355469 101.769531 125.265625 101.507812 C 125.179688 101.246094 125.042969 101.015625 124.863281 100.8125 C 124.683594 100.613281 124.457031 100.453125 124.1875 100.335938 C 123.914062 100.21875 123.601562 100.160156 123.238281 100.160156 C 122.878906 100.160156 122.5625 100.21875 122.292969 100.335938 C 122.019531 100.453125 121.796875 100.613281 121.613281 100.8125 C 121.433594 101.015625 121.300781 101.246094 121.210938 101.507812 C 121.121094 101.769531 121.078125 102.046875 121.078125 102.339844 C 121.078125 102.632812 121.121094 102.910156 121.210938 103.171875 C 121.300781 103.4375 121.433594 103.667969 121.613281 103.871094 C 121.796875 104.070312 122.019531 104.230469 122.292969 104.347656 C 122.5625 104.464844 122.878906 104.523438 123.238281 104.523438 C 123.601562 104.523438 123.914062 104.464844 124.1875 104.347656 C 124.457031 104.230469 124.683594 104.070312 124.863281 103.871094 C 125.042969 103.667969 125.179688 103.4375 125.265625 103.171875 C 125.355469 102.910156 125.398438 102.632812 125.398438 102.339844 M 126.808594 102.339844 C 126.808594 102.835938 126.726562 103.300781 126.5625 103.738281 C 126.402344 104.175781 126.167969 104.558594 125.859375 104.890625 C 125.554688 105.21875 125.179688 105.484375 124.738281 105.679688 C 124.296875 105.871094 123.796875 105.972656 123.238281 105.972656 C 122.679688 105.972656 122.179688 105.871094 121.738281 105.679688 C 121.296875 105.484375 120.921875 105.21875 120.617188 104.890625 C 120.3125 104.558594 120.074219 104.175781 119.910156 103.738281 C 119.75 103.300781 119.667969 102.835938 119.667969 102.339844 C 119.667969 101.847656 119.75 101.382812 119.910156 100.945312 C 120.074219 100.507812 120.3125 100.125 120.617188 99.789062 C 120.921875 99.460938 121.296875 99.195312 121.738281 99.003906 C 122.179688 98.808594 122.679688 98.710938 123.238281 98.710938 C 123.796875 98.710938 124.296875 98.808594 124.738281 99.003906 C 125.179688 99.195312 125.554688 99.460938 125.859375 99.789062 C 126.167969 100.125 126.402344 100.507812 126.5625 100.945312 C 126.726562 101.382812 126.808594 101.847656 126.808594 102.339844 "/>
</g>
<g clip-path="url(#clip20)" clip-rule="nonzero">
<path style=" stroke:none;fill-rule:nonzero;fill:rgb(4.705882%,18.823529%,43.529412%);fill-opacity:1;" d="M 132.492188 101.171875 C 132.492188 101.011719 132.472656 100.882812 132.425781 100.777344 C 132.378906 100.679688 132.320312 100.601562 132.257812 100.542969 C 132.191406 100.488281 132.125 100.453125 132.054688 100.433594 C 131.988281 100.414062 131.929688 100.40625 131.890625 100.40625 L 128.640625 100.40625 L 128.640625 101.953125 L 131.890625 101.953125 C 131.921875 101.953125 131.96875 101.941406 132.035156 101.917969 C 132.101562 101.894531 132.167969 101.855469 132.238281 101.796875 C 132.304688 101.738281 132.367188 101.660156 132.414062 101.554688 C 132.464844 101.457031 132.492188 101.328125 132.492188 101.171875 M 133.828125 101.171875 C 133.828125 101.472656 133.800781 101.734375 133.738281 101.960938 C 133.679688 102.1875 133.597656 102.382812 133.5 102.550781 C 133.402344 102.714844 133.289062 102.855469 133.164062 102.964844 C 133.042969 103.074219 132.917969 103.160156 132.789062 103.226562 L 133.71875 105.746094 L 132.289062 105.746094 L 131.4375 103.421875 L 128.640625 103.421875 L 128.640625 105.746094 L 127.304688 105.746094 L 127.304688 98.9375 L 132.089844 98.9375 C 132.230469 98.9375 132.402344 98.96875 132.601562 99.03125 C 132.804688 99.097656 132.996094 99.210938 133.175781 99.378906 C 133.359375 99.542969 133.515625 99.769531 133.640625 100.058594 C 133.769531 100.347656 133.828125 100.71875 133.828125 101.171875 "/>
</g>
<g clip-path="url(#clip21)" clip-rule="nonzero">
<path style=" stroke:none;fill-rule:nonzero;fill:rgb(4.705882%,18.823529%,43.529412%);fill-opacity:1;" d="M 137.710938 100.207031 L 136.496094 102.917969 L 138.929688 102.917969 Z M 140.199219 105.746094 L 139.585938 104.382812 L 135.832031 104.382812 L 135.21875 105.746094 L 133.792969 105.746094 L 136.851562 98.9375 L 138.566406 98.9375 L 141.625 105.746094 "/>
</g>
<g clip-path="url(#clip22)" clip-rule="nonzero">
<path style=" stroke:none;fill-rule:nonzero;fill:rgb(4.705882%,18.823529%,43.529412%);fill-opacity:1;" d="M 144.019531 100.40625 L 144.019531 105.746094 L 142.6875 105.746094 L 142.6875 100.40625 L 140.292969 100.40625 L 140.292969 98.9375 L 146.417969 98.9375 L 146.417969 100.40625 "/>
</g>
<g clip-path="url(#clip23)" clip-rule="nonzero">
<path style=" stroke:none;fill-rule:nonzero;fill:rgb(4.705882%,18.823529%,43.529412%);fill-opacity:1;" d="M 147.101562 105.746094 L 148.441406 105.746094 L 148.441406 98.9375 L 147.101562 98.9375 Z M 147.101562 105.746094 "/>
</g>
<g clip-path="url(#clip24)" clip-rule="nonzero">
<path style=" stroke:none;fill-rule:nonzero;fill:rgb(4.705882%,18.823529%,43.529412%);fill-opacity:1;" d="M 154.816406 102.339844 C 154.816406 102.046875 154.773438 101.769531 154.683594 101.507812 C 154.597656 101.246094 154.460938 101.015625 154.28125 100.8125 C 154.101562 100.613281 153.875 100.453125 153.601562 100.335938 C 153.332031 100.21875 153.015625 100.160156 152.65625 100.160156 C 152.296875 100.160156 151.976562 100.21875 151.710938 100.335938 C 151.4375 100.453125 151.210938 100.613281 151.035156 100.8125 C 150.851562 101.015625 150.714844 101.246094 150.628906 101.507812 C 150.539062 101.769531 150.496094 102.046875 150.496094 102.339844 C 150.496094 102.632812 150.539062 102.910156 150.628906 103.171875 C 150.714844 103.4375 150.851562 103.667969 151.035156 103.871094 C 151.210938 104.070312 151.4375 104.230469 151.710938 104.347656 C 151.976562 104.464844 152.296875 104.523438 152.65625 104.523438 C 153.015625 104.523438 153.332031 104.464844 153.601562 104.347656 C 153.875 104.230469 154.101562 104.070312 154.28125 103.871094 C 154.460938 103.667969 154.597656 103.4375 154.683594 103.171875 C 154.773438 102.910156 154.816406 102.632812 154.816406 102.339844 M 156.222656 102.339844 C 156.222656 102.835938 156.140625 103.300781 155.980469 103.738281 C 155.820312 104.175781 155.585938 104.558594 155.277344 104.890625 C 154.96875 105.21875 154.597656 105.484375 154.15625 105.679688 C 153.714844 105.871094 153.214844 105.972656 152.65625 105.972656 C 152.097656 105.972656 151.597656 105.871094 151.160156 105.679688 C 150.714844 105.484375 150.34375 105.21875 150.035156 104.890625 C 149.726562 104.558594 149.492188 104.175781 149.332031 103.738281 C 149.167969 103.300781 149.085938 102.835938 149.085938 102.339844 C 149.085938 101.847656 149.167969 101.382812 149.332031 100.945312 C 149.492188 100.507812 149.726562 100.125 150.035156 99.789062 C 150.34375 99.460938 150.714844 99.195312 151.160156 99.003906 C 151.597656 98.808594 152.097656 98.710938 152.65625 98.710938 C 153.214844 98.710938 153.714844 98.808594 154.15625 99.003906 C 154.597656 99.195312 154.96875 99.460938 155.277344 99.789062 C 155.585938 100.125 155.820312 100.507812 155.980469 100.945312 C 156.140625 101.382812 156.222656 101.847656 156.222656 102.339844 "/>
</g>
<g clip-path="url(#clip25)" clip-rule="nonzero">
<path style=" stroke:none;fill-rule:nonzero;fill:rgb(4.705882%,18.823529%,43.529412%);fill-opacity:1;" d="M 161.910156 105.746094 L 158.0625 100.988281 L 158.0625 105.746094 L 156.71875 105.746094 L 156.71875 98.9375 L 158.0625 98.9375 L 161.910156 103.695312 L 161.910156 98.9375 L 163.25 98.9375 L 163.25 105.746094 "/>
</g>
<g clip-path="url(#clip26)" clip-rule="nonzero">
<path style=" stroke:none;fill-rule:nonzero;fill:rgb(4.705882%,18.823529%,43.529412%);fill-opacity:1;" d="M 172.972656 102.339844 C 172.972656 102.046875 172.925781 101.769531 172.839844 101.507812 C 172.75 101.246094 172.617188 101.015625 172.4375 100.8125 C 172.253906 100.613281 172.03125 100.453125 171.761719 100.335938 C 171.488281 100.21875 171.175781 100.160156 170.8125 100.160156 C 170.449219 100.160156 170.136719 100.21875 169.863281 100.335938 C 169.59375 100.453125 169.367188 100.613281 169.1875 100.8125 C 169.007812 101.015625 168.875 101.246094 168.78125 101.507812 C 168.695312 101.769531 168.652344 102.046875 168.652344 102.339844 C 168.652344 102.632812 168.695312 102.910156 168.78125 103.171875 C 168.875 103.4375 169.007812 103.667969 169.1875 103.871094 C 169.367188 104.070312 169.59375 104.230469 169.863281 104.347656 C 170.136719 104.464844 170.449219 104.523438 170.8125 104.523438 C 171.175781 104.523438 171.488281 104.464844 171.761719 104.347656 C 172.03125 104.230469 172.253906 104.070312 172.4375 103.871094 C 172.617188 103.667969 172.75 103.4375 172.839844 103.171875 C 172.925781 102.910156 172.972656 102.632812 172.972656 102.339844 M 174.382812 102.339844 C 174.382812 102.835938 174.300781 103.300781 174.136719 103.738281 C 173.976562 104.175781 173.738281 104.558594 173.433594 104.890625 C 173.128906 105.21875 172.75 105.484375 172.3125 105.679688 C 171.867188 105.871094 171.371094 105.972656 170.8125 105.972656 C 170.253906 105.972656 169.753906 105.871094 169.3125 105.679688 C 168.871094 105.484375 168.496094 105.21875 168.191406 104.890625 C 167.886719 104.558594 167.648438 104.175781 167.484375 103.738281 C 167.324219 103.300781 167.242188 102.835938 167.242188 102.339844 C 167.242188 101.847656 167.324219 101.382812 167.484375 100.945312 C 167.648438 100.507812 167.886719 100.125 168.191406 99.789062 C 168.496094 99.460938 168.871094 99.195312 169.3125 99.003906 C 169.753906 98.808594 170.253906 98.710938 170.8125 98.710938 C 171.371094 98.710938 171.867188 98.808594 172.3125 99.003906 C 172.75 99.195312 173.128906 99.460938 173.433594 99.789062 C 173.738281 100.125 173.976562 100.507812 174.136719 100.945312 C 174.300781 101.382812 174.382812 101.847656 174.382812 102.339844 "/>
</g>
<g clip-path="url(#clip27)" clip-rule="nonzero">
<path style=" stroke:none;fill-rule:nonzero;fill:rgb(4.705882%,18.823529%,43.529412%);fill-opacity:1;" d="M 176.214844 100.40625 L 176.214844 101.953125 L 180.628906 101.953125 L 180.628906 103.421875 L 176.214844 103.421875 L 176.214844 105.746094 L 174.878906 105.746094 L 174.878906 98.9375 L 181.226562 98.9375 L 181.226562 100.40625 "/>
</g>
<g clip-path="url(#clip28)" clip-rule="nonzero">
<path style=" stroke:none;fill-rule:nonzero;fill:rgb(4.705882%,18.823529%,43.529412%);fill-opacity:1;" d="M 185.792969 105.746094 L 187.132812 105.746094 L 187.132812 98.9375 L 185.792969 98.9375 Z M 185.792969 105.746094 "/>
</g>
<g clip-path="url(#clip29)" clip-rule="nonzero">
<path style=" stroke:none;fill-rule:nonzero;fill:rgb(4.705882%,18.823529%,43.529412%);fill-opacity:1;" d="M 192.933594 105.746094 L 189.082031 100.988281 L 189.082031 105.746094 L 187.742188 105.746094 L 187.742188 98.9375 L 189.082031 98.9375 L 192.933594 103.695312 L 192.933594 98.9375 L 194.269531 98.9375 L 194.269531 105.746094 "/>
</g>
<g clip-path="url(#clip30)" clip-rule="nonzero">
<path style=" stroke:none;fill-rule:nonzero;fill:rgb(4.705882%,18.823529%,43.529412%);fill-opacity:1;" d="M 200.515625 102.339844 C 200.515625 102.066406 200.480469 101.8125 200.402344 101.566406 C 200.320312 101.324219 200.199219 101.113281 200.035156 100.933594 C 199.871094 100.753906 199.664062 100.613281 199.414062 100.511719 C 199.167969 100.40625 198.871094 100.355469 198.53125 100.355469 L 196.21875 100.355469 L 196.21875 104.324219 L 198.53125 104.324219 C 198.871094 104.324219 199.167969 104.277344 199.414062 104.171875 C 199.664062 104.066406 199.871094 103.925781 200.035156 103.746094 C 200.199219 103.566406 200.320312 103.359375 200.402344 103.113281 C 200.480469 102.871094 200.515625 102.613281 200.515625 102.339844 M 201.925781 102.339844 C 201.925781 102.808594 201.851562 103.25 201.699219 103.664062 C 201.550781 104.078125 201.332031 104.441406 201.042969 104.75 C 200.757812 105.058594 200.410156 105.300781 199.992188 105.480469 C 199.574219 105.660156 199.101562 105.746094 198.5625 105.746094 L 194.878906 105.746094 L 194.878906 98.9375 L 198.5625 98.9375 C 199.101562 98.9375 199.574219 99.023438 199.992188 99.203125 C 200.410156 99.378906 200.757812 99.625 201.042969 99.929688 C 201.332031 100.242188 201.550781 100.601562 201.699219 101.019531 C 201.851562 101.433594 201.925781 101.875 201.925781 102.339844 "/>
</g>
<g clip-path="url(#clip31)" clip-rule="nonzero">
<path style=" stroke:none;fill-rule:nonzero;fill:rgb(4.705882%,18.823529%,43.529412%);fill-opacity:1;" d="M 202.230469 105.746094 L 203.570312 105.746094 L 203.570312 98.9375 L 202.230469 98.9375 Z M 202.230469 105.746094 "/>
</g>
<g clip-path="url(#clip32)" clip-rule="nonzero">
<path style=" stroke:none;fill-rule:nonzero;fill:rgb(4.705882%,18.823529%,43.529412%);fill-opacity:1;" d="M 207.90625 100.207031 L 206.691406 102.917969 L 209.125 102.917969 Z M 210.394531 105.746094 L 209.777344 104.382812 L 206.023438 104.382812 L 205.410156 105.746094 L 203.988281 105.746094 L 207.046875 98.9375 L 208.761719 98.9375 L 211.816406 105.746094 "/>
</g>
<g clip-path="url(#clip33)" clip-rule="nonzero">
<path style=" stroke:none;fill-rule:evenodd;fill:rgb(4.705882%,18.823529%,43.529412%);fill-opacity:1;" d="M 208.375 89.105469 L 204.414062 89.105469 C 204.441406 88.273438 204.371094 87.34375 204.453125 86.574219 L 208.375 86.574219 Z M 171.90625 85.363281 C 171.003906 83.621094 172.460938 82.597656 174.34375 82.726562 C 175.5625 82.808594 176.695312 83.273438 177.738281 83.757812 C 178.804688 84.25 179.863281 84.726562 180.492188 85.363281 Z M 211.976562 85.363281 L 183.144531 85.363281 C 181.980469 84.515625 180.558594 83.632812 179.007812 82.867188 C 177.519531 82.128906 175.746094 81.386719 173.738281 81.480469 C 171.914062 81.5625 169.632812 82.550781 169.96875 84.613281 C 170.003906 84.882812 170.152344 85.027344 170.175781 85.363281 L 168.125 85.363281 L 168.125 86.574219 L 170.285156 86.574219 L 170.285156 94.703125 L 172.046875 94.703125 C 172.128906 92.066406 172.058594 89.273438 172.082031 86.574219 L 182.898438 86.574219 L 182.898438 88.429688 L 179.398438 88.429688 C 178.15625 88.429688 175.277344 88.027344 175.300781 89.214844 C 175.304688 89.644531 175.972656 90.257812 176.292969 90.53125 C 176.515625 90.734375 176.820312 90.925781 177.101562 91.140625 C 177.589844 91.5 178.210938 91.796875 178.726562 91.390625 C 178.9375 90.960938 178.753906 90.132812 178.867188 89.605469 L 182.898438 89.605469 L 182.898438 94.703125 L 184.699219 94.703125 C 184.722656 92.007812 184.652344 89.214844 184.734375 86.574219 C 186.570312 86.597656 188.503906 86.527344 190.28125 86.609375 C 190.257812 87.339844 190.332031 88.152344 190.246094 88.820312 C 189.328125 88.890625 188.351562 88.613281 188.230469 89.320312 C 188.082031 90.226562 189.894531 91.363281 190.492188 91.601562 C 190.953125 91.785156 191.675781 91.832031 191.902344 91.53125 C 192.199219 91.144531 192.011719 89.761719 192.011719 89.105469 L 192.011719 86.574219 L 195.40625 86.574219 L 195.40625 94.703125 L 197.171875 94.703125 C 197.195312 92.007812 197.121094 89.214844 197.207031 86.574219 C 199.019531 86.597656 200.929688 86.527344 202.683594 86.609375 C 202.660156 87.429688 202.734375 88.34375 202.648438 89.105469 C 201.828125 89.074219 200.988281 89.132812 200.917969 89.714844 C 200.847656 90.296875 201.527344 90.722656 201.941406 91.066406 C 202.59375 91.601562 203.597656 92.476562 204.378906 91.667969 C 204.460938 91.304688 204.390625 90.785156 204.414062 90.355469 C 205.726562 90.375 207.125 90.308594 208.375 90.390625 L 208.375 94.703125 L 210.140625 94.703125 C 210.164062 92.007812 210.09375 89.214844 210.175781 86.574219 L 211.941406 86.574219 C 212.023438 86.242188 211.957031 85.757812 211.976562 85.363281 "/>
</g>
<path style=" stroke:none;fill-rule:evenodd;fill:rgb(4.705882%,18.823529%,43.529412%);fill-opacity:1;" d="M 55.222656 86.574219 L 55.222656 88.5 C 55.222656 89.113281 55.351562 89.835938 55.222656 90.390625 C 55.1875 90.542969 54.929688 90.8125 54.796875 90.925781 C 53.476562 92.003906 50.398438 92.03125 49.710938 90.390625 C 50.949219 90.152344 52.460938 89.574219 52.429688 88.179688 C 52.417969 87.503906 52.039062 87.074219 51.722656 86.609375 C 52.820312 86.527344 54.066406 86.597656 55.222656 86.574219 M 38.789062 85.363281 C 38.441406 85.363281 38 85.441406 37.730469 85.363281 C 37.398438 85.269531 36.929688 84.410156 36.953125 83.9375 C 36.984375 83.183594 37.828125 82.648438 38.71875 82.867188 C 39.925781 83.164062 41.316406 84.59375 41.972656 85.363281 Z M 41.507812 82.9375 C 40.101562 81.851562 37.484375 80.964844 35.929688 82.472656 C 35.589844 82.804688 35.207031 83.382812 35.152344 83.9375 C 35.078125 84.605469 35.375 84.988281 35.535156 85.363281 L 6.3125 85.363281 L 6.3125 86.574219 C 7.089844 86.597656 7.964844 86.527344 8.679688 86.609375 C 8.65625 87.453125 8.726562 88.394531 8.648438 89.179688 L 5.359375 89.179688 C 5.257812 88.101562 5.535156 87.34375 5.289062 86.609375 C 4.675781 84.738281 0.898438 85.128906 0.203125 86.433594 C -0.0625 86.925781 0.0429688 87.792969 0.410156 88.144531 L 2.25 88.144531 C 2.167969 87.847656 1.652344 87.597656 1.6875 87.144531 C 1.738281 86.503906 3.296875 86.3125 3.558594 86.933594 C 3.699219 87.261719 3.59375 87.738281 3.59375 88.039062 C 3.59375 88.40625 3.621094 88.769531 3.558594 89.179688 C 2.628906 89.15625 1.453125 89.109375 1.4375 89.820312 C 1.433594 90.078125 1.804688 90.4375 2.035156 90.636719 C 2.828125 91.324219 4.21875 92.667969 5.324219 91.996094 C 5.394531 91.519531 5.34375 90.921875 5.359375 90.390625 L 8.679688 90.390625 L 8.679688 94.703125 L 10.484375 94.703125 C 10.507812 92.007812 10.4375 89.214844 10.519531 86.574219 L 14.621094 86.574219 L 14.621094 94.667969 C 15.148438 94.75 15.832031 94.679688 16.421875 94.703125 C 16.445312 92.007812 16.371094 89.214844 16.457031 86.574219 L 24.480469 86.574219 C 24.398438 87.492188 24.679688 88.632812 24.195312 89.074219 C 23.753906 89.472656 22.503906 89.402344 22.039062 89.179688 C 21.378906 88.851562 21.179688 87.925781 20.625 87.644531 C 20.195312 87.914062 19.734375 88.144531 19.25 88.355469 C 20.726562 90.386719 22.714844 92.503906 24.796875 94.097656 C 25.078125 94.308594 25.503906 94.722656 25.816406 94.703125 C 26.253906 94.679688 26.746094 93.984375 27.125 93.917969 C 25.777344 92.84375 24.238281 91.769531 23.207031 90.496094 C 24.460938 90.417969 25.515625 90.238281 26.03125 89.425781 C 26.457031 88.761719 26.183594 87.628906 26.316406 86.574219 C 29.742188 86.597656 33.265625 86.527344 36.632812 86.609375 C 36.65625 87.125 36.679688 87.394531 36.632812 87.789062 C 33.597656 88.039062 29.132812 86.796875 29.140625 89.890625 C 29.144531 91.648438 30.648438 93.007812 31.757812 93.878906 C 32.074219 94.125 32.800781 94.71875 33.136719 94.703125 C 33.441406 94.6875 34.027344 94.125 34.269531 93.953125 C 34.371094 93.871094 34.535156 93.800781 34.515625 93.703125 C 33.234375 93.527344 32.542969 92.839844 31.792969 91.957031 C 31.347656 91.433594 30.644531 90.382812 30.980469 89.566406 C 31.140625 89.191406 31.636719 89.042969 32.109375 89 C 33.429688 88.875 35.335938 89.09375 36.632812 89 C 36.695312 90.875 36.609375 92.695312 36.667969 94.703125 L 38.433594 94.703125 L 38.433594 86.574219 L 42.390625 86.574219 L 42.390625 94.703125 L 44.160156 94.703125 C 44.183594 92.007812 44.113281 89.214844 44.195312 86.574219 L 48.152344 86.574219 C 48.601562 86.574219 49.15625 86.480469 49.496094 86.574219 C 49.910156 86.695312 50.601562 87.667969 50.589844 88.144531 C 50.566406 89.378906 48.714844 89.449219 47.589844 89.105469 C 47.503906 92.773438 52.4375 93.492188 55.222656 92.203125 L 55.222656 94.703125 C 55.8125 94.679688 56.492188 94.75 57.023438 94.667969 L 57.023438 86.574219 L 58.792969 86.574219 L 58.792969 85.363281 L 43.804688 85.363281 C 43.15625 84.644531 42.425781 83.644531 41.507812 82.9375 "/>
<path style=" stroke:none;fill-rule:evenodd;fill:rgb(4.705882%,18.823529%,43.529412%);fill-opacity:1;" d="M 82.996094 85.363281 C 82.652344 85.363281 82.203125 85.441406 81.9375 85.363281 C 81.625 85.273438 81.160156 84.425781 81.160156 84.011719 C 81.160156 83.214844 82.011719 82.644531 82.925781 82.867188 C 84.222656 83.191406 85.535156 84.632812 86.175781 85.363281 Z M 85.714844 82.9375 C 84.839844 82.257812 83.703125 81.5625 82.253906 81.65625 C 80.847656 81.746094 79.464844 82.617188 79.355469 83.972656 C 79.304688 84.597656 79.558594 84.96875 79.746094 85.363281 C 75.976562 85.390625 72.113281 85.3125 68.402344 85.398438 C 68.5 85.738281 68.390625 86.378906 68.4375 86.574219 L 80.875 86.574219 L 80.875 88.214844 L 74.65625 88.214844 C 74.734375 88.445312 75.011719 88.539062 75.222656 88.714844 C 75.800781 89.1875 76.472656 89.90625 76.777344 90.566406 C 77.375 91.871094 76.40625 92.707031 75.011719 92.351562 C 73.800781 92.039062 72.917969 91.03125 72.289062 90.070312 C 71.9375 89.53125 71.558594 88.78125 71.441406 88.285156 C 71.40625 88.128906 71.398438 87.800781 71.410156 87.644531 C 70.828125 87.859375 70.367188 88.191406 69.816406 88.429688 C 70.375 90.148438 71.375 91.753906 72.785156 92.707031 C 74.191406 93.652344 76.941406 94.054688 78.191406 92.667969 C 78.457031 92.375 78.691406 91.847656 78.6875 91.351562 C 78.675781 90.519531 78.125 90.007812 77.941406 89.390625 C 78.910156 89.414062 79.96875 89.34375 80.875 89.425781 L 80.875 94.703125 L 82.644531 94.703125 C 82.667969 92.007812 82.597656 89.214844 82.679688 86.574219 L 86.601562 86.574219 L 86.601562 94.703125 L 88.371094 94.703125 C 88.394531 92.007812 88.320312 89.214844 88.40625 86.574219 L 98.015625 86.574219 L 98.015625 90.710938 C 97.132812 91.648438 94.179688 92.117188 93.667969 90.566406 C 93.574219 90.269531 93.550781 89.894531 93.632812 89.605469 C 94.050781 88.179688 96.511719 88.703125 97.589844 89.105469 C 97.402344 88.65625 97.296875 88.121094 97.132812 87.644531 C 94.988281 87.085938 92.632812 87.714844 91.90625 89.285156 C 91.714844 89.683594 91.660156 90.488281 91.832031 90.925781 C 92.546875 92.746094 96.308594 93.351562 98.015625 92.203125 L 98.015625 94.703125 L 99.785156 94.703125 L 99.785156 86.574219 L 110.527344 86.574219 C 110.5 87.183594 110.570312 87.882812 110.492188 88.429688 L 105.15625 88.429688 C 104.566406 88.429688 103.816406 88.332031 103.421875 88.5 C 102.25 89 103.46875 90.167969 104.058594 90.636719 C 104.550781 91.039062 105.105469 91.601562 105.71875 91.601562 C 106.714844 91.609375 106.410156 90.632812 106.464844 89.605469 L 110.527344 89.605469 L 110.527344 94.703125 L 112.332031 94.703125 C 112.351562 92.007812 112.28125 89.214844 112.363281 86.574219 L 114.304688 86.574219 L 114.304688 85.363281 L 88.015625 85.363281 C 87.34375 84.605469 86.644531 83.660156 85.714844 82.9375 "/>
<path style=" stroke:none;fill-rule:evenodd;fill:rgb(4.705882%,18.823529%,43.529412%);fill-opacity:1;" d="M 149.539062 89.105469 L 145.546875 89.105469 C 145.570312 88.273438 145.5 87.34375 145.582031 86.574219 L 149.539062 86.574219 Z M 133.5625 85.363281 C 133.21875 85.363281 132.769531 85.441406 132.503906 85.363281 C 132.179688 85.269531 131.699219 84.414062 131.726562 83.9375 C 131.769531 83.167969 132.601562 82.648438 133.496094 82.867188 C 134.742188 83.171875 136.054688 84.578125 136.746094 85.363281 Z M 127.097656 89.714844 C 128.273438 90.21875 129.328125 90.839844 130.492188 91.351562 C 129.226562 92.1875 126.363281 91.53125 127.097656 89.714844 M 159.007812 85.363281 L 138.578125 85.363281 C 137.933594 84.648438 137.199219 83.644531 136.289062 82.9375 C 135.363281 82.226562 134.253906 81.5625 132.820312 81.65625 C 131.929688 81.714844 131.097656 82.039062 130.59375 82.585938 C 130.316406 82.894531 129.984375 83.425781 129.925781 83.9375 C 129.847656 84.613281 130.144531 85 130.316406 85.363281 L 123.671875 85.363281 L 123.671875 86.574219 L 131.480469 86.574219 C 131.457031 87.894531 131.527344 89.308594 131.445312 90.566406 C 130.335938 90.023438 129.171875 89.53125 128.125 88.933594 C 128.71875 88.773438 129.632812 88.578125 130.273438 88.820312 C 130.4375 88.882812 130.539062 88.996094 130.667969 89.105469 C 130.734375 89.164062 130.925781 89.402344 130.953125 89.285156 C 130.84375 88.753906 130.734375 88.21875 130.59375 87.714844 C 128.734375 87.203125 126.644531 87.699219 125.71875 88.820312 C 125.148438 89.511719 125.019531 90.746094 125.648438 91.53125 C 126.699219 92.84375 129.871094 93.363281 131.480469 92.351562 L 131.480469 94.703125 C 132.070312 94.679688 132.75 94.75 133.28125 94.664062 L 133.28125 86.574219 C 134.566406 86.597656 135.945312 86.527344 137.167969 86.609375 L 137.167969 94.664062 C 137.6875 94.75 138.359375 94.679688 138.9375 94.703125 C 138.960938 92.007812 138.890625 89.214844 138.972656 86.574219 C 140.570312 86.597656 142.269531 86.527344 143.8125 86.609375 C 143.789062 87.429688 143.859375 88.34375 143.777344 89.105469 C 143.035156 89.105469 142.34375 89.078125 142.117188 89.53125 C 141.816406 90.136719 142.605469 90.671875 143.070312 91.066406 C 143.558594 91.480469 144.054688 91.914062 144.480469 91.996094 C 145.675781 92.207031 145.597656 91.429688 145.546875 90.355469 C 146.863281 90.375 148.28125 90.308594 149.539062 90.390625 L 149.539062 94.703125 L 151.269531 94.703125 L 151.269531 86.574219 L 154.839844 86.574219 L 154.839844 94.703125 L 156.640625 94.703125 C 156.667969 92.007812 156.589844 89.214844 156.671875 86.574219 L 158.972656 86.574219 C 159.050781 86.242188 158.984375 85.757812 159.007812 85.363281 "/>
<path style=" stroke:none;fill-rule:nonzero;fill:rgb(100%,100%,100%);fill-opacity:1;" d="M 37.390625 58.335938 C 37.71875 58.191406 37.71875 57.722656 37.441406 57.542969 C 37.296875 57.457031 37.160156 57.457031 36.976562 57.457031 C 36.882812 57.542969 36.792969 57.640625 36.746094 57.773438 C 36.699219 58.003906 36.792969 58.253906 36.976562 58.335938 C 37.109375 58.4375 37.25 58.4375 37.390625 58.335938 "/>
<path style=" stroke:none;fill-rule:nonzero;fill:rgb(100%,100%,100%);fill-opacity:1;" d="M 62.742188 42.222656 L 62.742188 45.695312 C 62.6875 47.878906 62.644531 50.113281 62.644531 52.40625 C 62.59375 52.6875 62.59375 52.921875 62.59375 53.203125 C 62.59375 53.765625 62.550781 54.3125 62.550781 54.832031 L 62.550781 57.078125 C 62.460938 57.5 62.320312 57.917969 62.132812 58.300781 C 61.671875 59.230469 61.070312 60.148438 60.410156 61.035156 C 60.226562 61.28125 60.042969 61.503906 59.859375 61.742188 C 59.070312 62.679688 58.191406 63.609375 57.265625 64.453125 C 55.917969 65.625 54.519531 66.644531 53.140625 67.488281 C 52.34375 67.996094 51.511719 68.382812 50.667969 68.792969 C 50.578125 68.835938 50.492188 68.925781 50.347656 68.988281 C 48.214844 69.828125 46.007812 70.503906 43.742188 70.851562 C 41.433594 71.207031 39.285156 71.011719 36.976562 70.84375 C 36.648438 70.804688 36.320312 70.695312 35.996094 70.664062 C 35.304688 70.511719 34.5625 70.335938 33.867188 70.101562 C 33.441406 70 33.023438 69.804688 32.65625 69.683594 C 32.234375 69.539062 31.820312 69.351562 31.453125 69.15625 C 31.402344 69.109375 31.3125 69.109375 31.257812 69.074219 C 30.414062 68.5 29.402344 68.113281 28.539062 67.558594 C 27.636719 66.976562 26.78125 66.34375 25.960938 65.664062 C 24.402344 64.375 23.003906 62.898438 21.777344 61.289062 C 20.558594 59.679688 19.445312 57.882812 18.867188 55.941406 C 18.683594 55.398438 18.738281 54.691406 18.738281 54.046875 C 18.683594 52.921875 18.683594 51.660156 18.683594 50.449219 C 18.683594 45.179688 18.800781 39.910156 18.835938 34.636719 C 18.839844 33.089844 18.847656 31.539062 18.847656 29.992188 C 18.851562 28.71875 18.914062 27.441406 18.945312 26.167969 C 18.972656 25.023438 18.863281 23.808594 19.109375 22.683594 C 19.242188 21.882812 19.617188 21.136719 19.886719 20.433594 C 20.449219 19.273438 21.203125 18.238281 21.933594 17.21875 C 22.492188 16.417969 23.191406 15.667969 23.84375 15.019531 L 23.882812 14.964844 C 25.378906 13.480469 26.996094 12.125 28.714844 11.046875 C 29.359375 10.683594 30.007812 10.347656 30.660156 9.980469 C 30.898438 9.835938 31.171875 9.75 31.453125 9.601562 C 33.925781 8.5 36.578125 7.742188 39.289062 7.566406 C 42.320312 7.371094 45.324219 7.738281 48.199219 8.695312 C 52.386719 10.09375 56.441406 12.554688 59.25 15.992188 C 60.007812 16.917969 60.707031 17.949219 61.265625 19.003906 C 61.753906 19.9375 62.238281 20.894531 62.519531 21.910156 C 62.785156 22.871094 62.789062 23.882812 62.828125 24.871094 C 62.875 26.082031 62.875 27.429688 62.875 28.699219 C 62.875 33.21875 62.875 37.800781 62.742188 42.222656 M 65.148438 32.664062 L 65.148438 32.539062 C 65.136719 30.78125 65.152344 29.03125 64.914062 27.289062 C 64.507812 24.355469 63.519531 21.664062 62.183594 19.167969 C 61.625 18.152344 61.070312 17.21875 60.410156 16.320312 C 60.226562 16.089844 60.042969 15.855469 59.859375 15.625 C 59.070312 14.597656 58.191406 13.667969 57.265625 12.824219 C 55.214844 10.996094 52.894531 9.558594 50.347656 8.53125 C 48.585938 7.785156 46.722656 7.273438 44.769531 6.933594 C 44.359375 6.851562 43.988281 6.796875 43.613281 6.746094 C 42.679688 6.609375 41.714844 6.5625 40.726562 6.519531 C 38.1875 6.410156 35.71875 6.796875 33.292969 7.539062 C 31.351562 8.128906 29.386719 9.160156 27.691406 10.257812 C 26.34375 11.136719 25.042969 12.21875 23.84375 13.4375 C 21.710938 15.585938 19.886719 18.097656 18.683594 20.71875 C 18.082031 22.070312 17.527344 23.464844 17.246094 24.988281 C 16.828125 27.289062 16.828125 29.8125 16.785156 32.292969 C 16.695312 33.914062 16.640625 35.519531 16.640625 37.191406 C 16.640625 38.820312 16.550781 40.511719 16.550781 42.183594 L 16.550781 50.546875 C 16.640625 51.046875 16.695312 51.523438 16.785156 52.023438 C 17.246094 54.277344 18.035156 56.367188 19.058594 58.335938 C 20.300781 60.855469 21.933594 63.097656 23.84375 65.054688 C 28.125 69.382812 34.3125 72.046875 40.425781 72.015625 C 42.121094 72.003906 43.945312 71.871094 45.609375 71.5 C 50.269531 70.453125 54.609375 68.140625 58.019531 64.789062 C 60.246094 62.605469 62.09375 60.066406 63.335938 57.199219 C 63.800781 56.136719 64.125 55.023438 64.457031 53.855469 C 65.171875 51.390625 65.035156 48.589844 65.101562 46.050781 C 65.175781 43.171875 65.1875 40.296875 65.175781 37.421875 C 65.171875 35.839844 65.160156 34.25 65.148438 32.664062 "/>
<path style=" stroke:none;fill-rule:nonzero;fill:rgb(100%,100%,100%);fill-opacity:1;" d="M 48.027344 26 C 48.113281 26.363281 48.257812 26.734375 48.394531 27.105469 L 48.394531 28.40625 C 48.394531 29.152344 48.4375 29.960938 48.585938 30.664062 C 48.667969 31.117188 48.773438 31.589844 48.90625 32.015625 C 48.949219 32.140625 49.09375 32.378906 49.09375 32.519531 C 49.039062 32.757812 48.808594 32.933594 48.667969 33.125 C 48.535156 33.40625 48.34375 33.730469 48.257812 34.058594 C 48.113281 34.339844 48.027344 34.710938 48.027344 35.046875 C 48.027344 35.28125 48.113281 35.609375 47.980469 35.796875 C 47.789062 36.082031 47.609375 36.351562 47.414062 36.632812 C 47 37.136719 46.632812 37.660156 46.214844 38.214844 C 45.753906 38.925781 45.238281 39.617188 44.769531 40.324219 C 44.3125 40.878906 43.933594 41.5 43.515625 42.09375 C 43.007812 42.835938 42.503906 43.636719 42.125 44.46875 C 41.945312 44.898438 41.804688 45.40625 41.714844 45.917969 C 41.664062 46.238281 41.617188 46.621094 41.617188 46.996094 C 41.714844 48.582031 42.675781 49.832031 44.078125 50.449219 C 44.167969 51.046875 44.3125 51.660156 44.453125 52.222656 C 44.453125 52.308594 44.496094 52.355469 44.585938 52.40625 C 44.632812 52.460938 44.679688 52.460938 44.722656 52.460938 L 44.769531 52.460938 C 46.632812 52.460938 48.484375 52.460938 50.34375 52.5 L 50.4375 52.5 C 51.035156 52.5 51.601562 52.460938 52.242188 52.460938 C 52.667969 52.460938 53.085938 52.5 53.453125 52.355469 C 53.453125 52.222656 53.175781 51.894531 53.085938 51.753906 C 52.527344 50.78125 51.921875 49.742188 51.371094 48.765625 C 51.316406 48.675781 51.269531 48.542969 51.316406 48.4375 C 51.40625 48.023438 51.875 47.511719 52.109375 47.136719 C 52.804688 46.0625 53.5 44.988281 54.195312 43.925781 C 55.171875 42.375 56.148438 40.785156 57.03125 39.195312 C 57.121094 39.054688 57.175781 38.925781 57.265625 38.820312 C 57.820312 37.75 58.417969 36.679688 58.695312 35.46875 C 59.402344 32.988281 59.070312 30.054688 58.507812 27.621094 C 58.238281 26.453125 57.769531 25.378906 57.265625 24.316406 C 56.796875 23.332031 56.285156 22.359375 56.003906 21.320312 C 55.820312 20.71875 55.640625 20.058594 55.589844 19.402344 C 55.589844 19.121094 55.640625 18.859375 55.640625 18.613281 C 55.679688 18.480469 55.730469 18.285156 55.679688 18.195312 C 55.589844 17.867188 54.710938 18.238281 54.519531 18.34375 C 53.277344 19.121094 54.058594 21.046875 54.425781 22.121094 C 54.839844 23.425781 55.589844 24.632812 56.148438 25.882812 C 56.195312 26.125 56.242188 26.363281 56.328125 26.546875 C 56.660156 27.523438 56.835938 28.46875 57.03125 29.480469 C 57.175781 30.199219 57.355469 31.175781 57.078125 31.867188 C 56.976562 31.867188 56.898438 31.769531 56.898438 31.675781 C 56.703125 31.214844 56.703125 30.570312 56.660156 30.09375 C 56.566406 29.449219 56.417969 28.832031 56.285156 28.226562 C 56.003906 27.199219 55.679688 26.183594 55.265625 25.191406 C 54.988281 24.5 54.558594 23.847656 54.195312 23.199219 C 53.871094 22.539062 53.644531 21.882812 53.453125 21.191406 C 53.222656 20.246094 53.085938 19.085938 53.140625 18.0625 C 53.175781 17.769531 53.175781 17.503906 53.222656 17.21875 L 53.175781 17.21875 C 53.175781 17.132812 53.035156 17.179688 52.988281 17.179688 C 52.769531 17.265625 52.476562 17.371094 52.242188 17.453125 C 51.875 17.628906 51.511719 18.011719 51.371094 18.421875 C 50.910156 19.546875 51.691406 21.375 52.054688 22.359375 C 52.429688 23.199219 52.804688 24.03125 53.222656 24.867188 C 53.554688 25.566406 53.914062 26.222656 54.195312 26.921875 C 54.660156 28.179688 54.988281 29.480469 55.171875 30.9375 C 55.3125 31.726562 55.359375 32.800781 55.035156 33.5 C 54.945312 33.5 54.839844 33.40625 54.839844 33.3125 C 54.753906 32.898438 54.8125 32.378906 54.8125 31.957031 C 54.8125 31.589844 54.753906 31.261719 54.710938 30.9375 C 54.660156 30.570312 54.605469 30.199219 54.558594 29.8125 C 54.382812 29.019531 54.195312 28.226562 53.871094 27.429688 C 53.6875 26.871094 53.355469 26.363281 53.085938 25.800781 C 52.804688 25.136719 52.476562 24.5 52.148438 23.847656 C 51.636719 22.71875 51.316406 21.558594 50.910156 20.433594 C 50.667969 19.726562 50.578125 18.984375 50.492188 18.285156 C 50.4375 18.011719 50.4375 17.734375 50.394531 17.503906 C 50.394531 17.453125 50.394531 17.453125 50.34375 17.453125 C 50.300781 17.398438 50.148438 17.398438 50.050781 17.398438 C 49.367188 17.398438 48.773438 17.953125 48.585938 18.613281 C 48.535156 18.859375 48.535156 19.085938 48.535156 19.347656 C 48.535156 19.460938 48.535156 19.691406 48.625 19.726562 L 49.1875 19.726562 L 49.1875 19.777344 L 49.226562 19.777344 C 49.226562 20.195312 49.367188 20.523438 49.453125 20.953125 C 49.648438 21.796875 49.878906 22.679688 50.050781 23.515625 C 50.148438 23.847656 50.246094 24.214844 50.34375 24.546875 C 50.523438 25.058594 50.714844 25.566406 50.910156 26.042969 C 51.132812 26.511719 51.316406 26.972656 51.550781 27.429688 C 51.921875 28.46875 52.199219 29.535156 52.382812 30.605469 C 52.527344 31.261719 52.667969 31.914062 52.769531 32.664062 C 52.804688 33.40625 52.949219 34.15625 52.582031 34.816406 C 52.527344 34.816406 52.476562 34.769531 52.429688 34.710938 C 52.292969 34.492188 52.382812 34.058594 52.382812 33.769531 C 52.242188 32.988281 52.109375 32.140625 52.015625 31.359375 C 51.875 30.664062 51.785156 29.90625 51.550781 29.199219 C 51.132812 28.226562 50.753906 27.242188 50.34375 26.261719 C 49.96875 25.191406 49.589844 24.117188 49.316406 22.964844 C 49.1875 22.390625 49.039062 21.734375 48.949219 21.136719 C 48.949219 20.953125 48.949219 20.523438 48.855469 20.382812 C 48.773438 20.300781 48.585938 20.300781 48.394531 20.347656 C 47.554688 20.566406 47.277344 21.597656 47.277344 22.488281 C 47.277344 22.824219 47.375 23.199219 47.414062 23.515625 C 47.464844 24.355469 47.75 25.191406 48.027344 26 "/>
<path style=" stroke:none;fill-rule:nonzero;fill:rgb(100%,100%,100%);fill-opacity:1;" d="M 39.898438 48.066406 C 40.628906 45.691406 39.15625 43.585938 38.042969 41.808594 C 37.664062 41.296875 37.351562 40.785156 36.976562 40.273438 C 36.648438 39.808594 36.320312 39.386719 35.996094 38.925781 C 35.816406 38.632812 35.582031 38.351562 35.398438 38.03125 C 34.84375 37.332031 34.328125 36.574219 33.765625 35.886719 C 33.585938 35.609375 33.71875 35.09375 33.679688 34.769531 C 33.632812 34.574219 33.585938 34.386719 33.542969 34.203125 C 33.398438 33.769531 33.214844 33.40625 32.988281 33.082031 C 32.890625 32.898438 32.75 32.757812 32.703125 32.570312 C 32.65625 32.570312 32.703125 32.332031 32.703125 32.292969 C 33.023438 31.445312 33.171875 30.570312 33.265625 29.621094 C 33.265625 29.480469 33.308594 29.34375 33.308594 29.195312 C 33.308594 28.832031 33.308594 28.46875 33.355469 28.082031 C 33.355469 27.773438 33.308594 27.390625 33.355469 27.058594 C 33.542969 26.511719 33.71875 26 33.910156 25.425781 C 34.28125 24.070312 35.261719 20.382812 32.890625 20.300781 L 32.890625 20.347656 C 32.84375 20.347656 32.84375 20.617188 32.800781 20.671875 C 32.75 21.191406 32.703125 21.699219 32.65625 22.167969 C 32.566406 22.679688 32.429688 23.199219 32.285156 23.65625 C 32.003906 24.546875 31.722656 25.378906 31.453125 26.261719 C 31.359375 26.402344 31.3125 26.546875 31.257812 26.6875 C 30.84375 27.816406 30.285156 28.875 30.007812 30.09375 C 29.816406 30.84375 29.773438 31.589844 29.640625 32.332031 C 29.542969 32.664062 29.5 33.03125 29.453125 33.363281 C 29.40625 33.769531 29.5 34.433594 29.308594 34.816406 C 28.566406 34.816406 29.175781 31.539062 29.261719 31.078125 C 29.542969 29.90625 29.773438 28.738281 30.199219 27.652344 C 30.382812 27.015625 30.707031 26.453125 30.9375 25.855469 C 31.125 25.378906 31.257812 24.871094 31.453125 24.394531 C 31.496094 24.214844 31.542969 24.03125 31.640625 23.792969 C 31.722656 23.464844 31.820312 23.097656 31.90625 22.71875 C 32.050781 22.121094 32.191406 21.507812 32.335938 20.898438 C 32.429688 20.566406 32.429688 20.058594 32.617188 19.777344 C 32.617188 19.777344 32.617188 19.726562 32.65625 19.726562 C 32.75 19.726562 33.117188 19.777344 33.171875 19.777344 L 33.171875 19.726562 C 33.265625 19.726562 33.214844 19.402344 33.214844 19.347656 C 33.214844 18.613281 33.023438 18.097656 32.65625 17.769531 C 32.476562 17.628906 32.285156 17.554688 32.003906 17.453125 C 31.867188 17.398438 31.585938 17.371094 31.453125 17.398438 C 31.453125 17.398438 31.402344 17.398438 31.402344 17.453125 C 31.3125 17.503906 31.3125 17.59375 31.3125 17.683594 C 31.3125 17.953125 31.3125 18.238281 31.257812 18.515625 C 31.125 19.597656 30.757812 20.617188 30.472656 21.664062 C 30.382812 21.929688 30.25 22.21875 30.144531 22.542969 C 29.816406 23.378906 29.453125 24.261719 29.035156 25.097656 C 28.613281 25.882812 28.207031 26.6875 27.878906 27.523438 C 27.125 29.195312 26.941406 31.410156 26.941406 33.5 L 26.898438 33.5 C 26.617188 33.5 26.617188 33.179688 26.574219 32.988281 C 26.390625 31.675781 26.617188 30.09375 26.941406 28.921875 C 27.171875 28.226562 27.359375 27.476562 27.644531 26.816406 C 27.972656 26.042969 28.378906 25.242188 28.761719 24.449219 C 29.125 23.65625 29.5 22.824219 29.816406 21.988281 C 30.144531 21.28125 30.382812 20.488281 30.519531 19.636719 C 30.566406 19.464844 30.621094 19.273438 30.566406 19.085938 C 30.472656 18.011719 29.640625 17.300781 28.613281 17.179688 C 28.566406 17.371094 28.613281 17.554688 28.613281 17.734375 L 28.613281 18.566406 C 28.613281 19.464844 28.566406 20.195312 28.378906 20.953125 C 28.15625 21.734375 27.921875 22.449219 27.597656 23.199219 C 27.359375 23.5625 27.125 23.929688 26.941406 24.355469 C 26.527344 25.097656 26.160156 25.941406 25.882812 26.816406 C 25.605469 27.773438 25.378906 28.738281 25.175781 29.769531 C 25.136719 30.234375 25.042969 30.699219 25.003906 31.21875 C 24.953125 31.410156 24.953125 31.675781 24.859375 31.867188 C 24.253906 31.867188 24.804688 29.304688 24.859375 28.921875 C 24.902344 28.503906 25.042969 28.042969 25.136719 27.621094 C 25.320312 27.015625 25.464844 26.367188 25.699219 25.800781 C 26.296875 24.5 26.941406 23.234375 27.449219 21.929688 C 27.597656 21.558594 27.734375 21.136719 27.832031 20.71875 C 27.921875 20.347656 28.015625 19.914062 27.921875 19.5 C 27.878906 18.859375 27.410156 18.238281 26.757812 18.097656 C 26.527344 18.097656 26.210938 18.0625 26.023438 18.152344 C 25.96875 18.152344 26.066406 18.285156 26.066406 18.34375 C 26.210938 18.9375 26.160156 19.636719 26.066406 20.246094 C 26.023438 20.765625 25.789062 21.238281 25.652344 21.699219 C 25.28125 22.871094 24.667969 23.980469 24.171875 25.136719 C 24.023438 25.378906 23.929688 25.617188 23.84375 25.882812 C 23.234375 27.390625 22.820312 29.019531 22.722656 30.761719 L 22.722656 32.847656 C 22.722656 33.820312 22.859375 34.816406 23.09375 35.699219 C 23.289062 36.308594 23.5625 36.914062 23.84375 37.515625 C 24.121094 38.03125 24.390625 38.539062 24.667969 39.054688 C 25.320312 40.230469 25.96875 41.445312 26.714844 42.523438 C 27.644531 43.96875 28.519531 45.449219 29.5 46.902344 C 29.726562 47.226562 29.96875 47.59375 30.199219 47.921875 C 30.285156 48.066406 30.425781 48.207031 30.425781 48.390625 C 30.472656 48.488281 30.472656 48.621094 30.425781 48.765625 C 29.871094 49.691406 29.308594 50.625 28.761719 51.601562 C 28.613281 51.832031 28.378906 52.128906 28.34375 52.460938 L 29.125 52.460938 C 29.917969 52.460938 30.660156 52.5 31.453125 52.5 L 35.117188 52.5 C 35.398438 52.5 35.722656 52.460938 35.996094 52.460938 L 36.414062 52.460938 C 36.601562 52.460938 36.835938 52.5 36.976562 52.460938 L 37.109375 52.460938 C 37.484375 52.265625 37.441406 50.867188 37.71875 50.492188 C 37.945312 50.355469 38.179688 50.210938 38.410156 50.019531 C 39.101562 49.507812 39.660156 48.902344 39.898438 48.066406 "/>
<path style=" stroke:none;fill-rule:nonzero;fill:rgb(100%,100%,100%);fill-opacity:1;" d="M 34.609375 30.894531 C 34.707031 30.519531 35.304688 30.199219 35.996094 30 C 36.320312 29.90625 36.648438 29.8125 36.976562 29.769531 C 37.523438 29.667969 37.996094 29.582031 38.226562 29.535156 C 38.59375 29.480469 39.066406 29.535156 39.386719 29.390625 C 39.8125 29.582031 40.457031 30.894531 40.457031 31.410156 C 40.457031 31.589844 40.410156 31.726562 40.316406 31.867188 C 40.132812 32.09375 39.855469 32.292969 39.617188 32.378906 C 39.488281 32.378906 39.386719 32.429688 39.242188 32.476562 L 38.964844 32.476562 C 38.59375 32.476562 37.8125 32.429688 36.976562 32.246094 C 36.648438 32.191406 36.320312 32.09375 35.996094 32.015625 C 35.164062 31.769531 34.519531 31.410156 34.609375 30.894531 M 41.242188 29.390625 C 41.753906 29.449219 43.378906 29.535156 44.769531 29.769531 C 46.070312 30.054688 47.230469 30.417969 47.09375 31.03125 C 46.960938 31.589844 45.566406 31.957031 45.046875 32.09375 C 44.953125 32.140625 44.863281 32.140625 44.769531 32.191406 C 44.679688 32.191406 44.632812 32.191406 44.585938 32.246094 C 44.359375 32.246094 44.121094 32.292969 43.988281 32.378906 C 43.058594 32.378906 41.101562 32.378906 40.859375 31.359375 C 40.6875 30.664062 41.054688 29.957031 41.242188 29.390625 M 34.046875 30.519531 C 33.585938 31.261719 34.234375 32.800781 34.609375 33.449219 C 34.976562 34.058594 35.441406 34.675781 35.996094 35.234375 C 36.320312 35.519531 36.648438 35.796875 36.976562 36.082031 C 38.136719 36.914062 39.433594 37.515625 40.726562 37.613281 C 41.160156 37.613281 41.519531 37.5625 41.945312 37.472656 C 42.960938 37.234375 43.894531 36.816406 44.769531 36.210938 C 46.121094 35.234375 47.1875 33.769531 47.703125 32.09375 C 47.835938 31.675781 48.027344 30.894531 47.75 30.472656 C 47.554688 30.199219 47.1875 30.054688 46.910156 29.90625 C 46.257812 29.535156 45.515625 29.390625 44.769531 29.246094 L 44.585938 29.246094 C 43.574219 29.0625 42.445312 28.875 41.332031 28.875 C 41.425781 28.644531 41.519531 28.367188 41.617188 28.082031 C 41.804688 27.476562 41.980469 26.871094 42.078125 26.183594 C 42.3125 24.03125 41.390625 22.390625 40.726562 20.617188 L 40.726562 20.566406 C 40.6875 20.347656 40.59375 20.148438 40.542969 19.917969 C 40.457031 19.726562 40.410156 19.21875 40.273438 19.085938 C 40.273438 19.21875 40.226562 19.347656 40.226562 19.5 C 40.082031 20.011719 39.984375 20.523438 39.855469 21.046875 C 39.660156 21.796875 39.335938 22.488281 39.101562 23.199219 C 38.59375 24.5 38.359375 26.402344 38.921875 27.816406 C 39.066406 28.128906 39.15625 28.546875 39.433594 28.832031 C 39.433594 29.019531 39.066406 28.96875 38.964844 29.019531 C 38.730469 29.019531 38.457031 28.96875 38.320312 29.0625 C 38.226562 29.0625 38.179688 29.0625 38.085938 29.109375 C 37.996094 29.109375 37.890625 29.109375 37.8125 29.152344 C 37.523438 29.152344 37.253906 29.152344 37.066406 29.246094 L 36.976562 29.246094 C 36.792969 29.246094 36.601562 29.304688 36.46875 29.390625 C 36.320312 29.390625 36.183594 29.390625 35.996094 29.449219 C 35.722656 29.535156 35.398438 29.621094 35.164062 29.71875 C 34.789062 29.863281 34.234375 30.09375 34.046875 30.519531 "/>
<path style=" stroke:none;fill-rule:nonzero;fill:rgb(100%,100%,100%);fill-opacity:1;" d="M 57.265625 56.644531 C 56.976562 56.707031 56.511719 55.816406 56.609375 55.621094 C 56.660156 55.433594 56.976562 55.25 57.121094 55.214844 L 57.121094 55.160156 C 57.175781 55.160156 57.21875 55.214844 57.265625 55.214844 C 57.394531 55.289062 57.5 55.484375 57.59375 55.621094 C 57.679688 55.761719 57.90625 55.941406 57.90625 56.132812 C 57.90625 56.371094 57.445312 56.609375 57.265625 56.644531 M 51.730469 59.917969 C 51.636719 60.242188 51.316406 60.332031 51.085938 60.476562 C 50.753906 60.476562 50.523438 60.390625 50.347656 60.113281 C 50.4375 60.0625 50.492188 59.917969 50.523438 59.871094 C 51.085938 59.179688 50.625 59.03125 50.523438 58.378906 C 50.714844 58.296875 50.847656 58.253906 51.035156 58.144531 C 51.132812 58.191406 51.222656 58.191406 51.269531 58.296875 C 51.371094 58.4375 51.40625 58.566406 51.511719 58.71875 C 51.636719 59.078125 51.921875 59.5 51.730469 59.917969 M 60 57.640625 C 60 57.542969 59.953125 57.457031 59.859375 57.351562 C 59.769531 57.199219 59.628906 57.078125 59.527344 56.941406 C 59.070312 56.191406 58.605469 55.484375 58.140625 54.742188 C 58.007812 54.453125 58.5625 54.367188 58.371094 53.992188 C 58.277344 53.855469 58.140625 53.671875 57.960938 53.625 C 57.730469 53.8125 57.5 53.949219 57.265625 54.121094 C 55.589844 55.25 53.871094 56.277344 52.015625 56.984375 C 51.453125 57.167969 50.910156 57.351562 50.347656 57.589844 C 50.246094 57.589844 50.203125 57.640625 50.109375 57.695312 C 49.734375 57.773438 49.367188 57.859375 49.039062 58.003906 C 48.855469 58.058594 48.667969 58.058594 48.535156 58.144531 C 48.34375 58.144531 48.164062 58.191406 48.070312 58.296875 C 47.878906 58.296875 47.699219 58.335938 47.609375 58.378906 C 47.375 58.378906 47.136719 58.4375 47 58.519531 C 46.816406 58.519531 46.582031 58.566406 46.402344 58.613281 C 46.261719 58.613281 46.121094 58.664062 45.988281 58.71875 C 45.894531 58.71875 45.792969 58.761719 45.703125 58.761719 C 45.566406 58.761719 45.367188 58.761719 45.28125 58.851562 C 45.144531 58.851562 45.046875 58.851562 44.953125 58.894531 L 44.769531 58.894531 C 44.632812 58.894531 44.496094 58.894531 44.359375 58.949219 C 44.21875 58.949219 44.078125 58.949219 43.933594 58.988281 C 43.753906 58.988281 43.515625 58.988281 43.378906 59.03125 C 43.285156 59.03125 43.195312 59.03125 43.058594 59.078125 C 42.863281 59.078125 42.539062 59.03125 42.359375 59.128906 L 40.269531 59.128906 C 39.949219 59.128906 39.523438 58.988281 39.242188 59.128906 C 39.101562 59.128906 39.101562 59.648438 39.15625 59.730469 C 39.335938 59.730469 40.410156 59.871094 40.726562 59.917969 C 40.824219 59.917969 40.824219 59.972656 40.859375 59.972656 C 41.054688 60.113281 41.101562 61.421875 41.007812 61.695312 C 40.917969 61.890625 40.859375 62.03125 40.726562 62.164062 C 40.726562 62.222656 40.6875 62.253906 40.6875 62.253906 L 40.6875 62.300781 C 40.632812 62.300781 40.542969 62.300781 40.5 62.253906 C 40.5 62.351562 40.359375 62.351562 40.316406 62.351562 C 39.8125 62.300781 39.523438 61.660156 39.898438 61.324219 C 40.132812 61.136719 40.410156 61.183594 40.632812 61.097656 C 40.632812 61.097656 40.726562 60.953125 40.726562 60.800781 C 40.78125 60.660156 40.78125 60.53125 40.726562 60.390625 C 40.726562 60.28125 40.632812 60.242188 40.5 60.242188 C 40.359375 60.195312 40.226562 60.195312 40.132812 60.242188 C 39.8125 60.242188 39.488281 60.429688 39.242188 60.660156 C 38.730469 61.183594 38.640625 62.03125 39.101562 62.582031 C 39.386719 63.003906 40.226562 63.335938 40.726562 63.097656 C 40.824219 63.050781 40.859375 63.003906 40.964844 62.964844 C 41.242188 62.964844 40.824219 63.796875 41.617188 63.707031 C 41.714844 63.707031 41.886719 63.664062 41.945312 63.570312 C 42.035156 63.242188 41.886719 62.582031 41.886719 62.222656 C 41.855469 61.46875 41.804688 60.660156 41.886719 59.917969 C 42.125 59.871094 42.359375 59.828125 42.585938 59.828125 C 43.101562 59.773438 43.65625 59.773438 44.125 59.6875 C 44.167969 59.730469 44.167969 59.828125 44.21875 59.871094 C 44.257812 60.019531 44.078125 60.0625 43.988281 60.148438 C 43.238281 60.148438 42.3125 60.332031 42.585938 61.324219 C 42.636719 61.503906 42.863281 61.605469 42.863281 61.839844 C 42.820312 62.0625 42.730469 62.300781 42.675781 62.542969 C 42.585938 63.664062 43.332031 64.167969 44.21875 64.453125 C 44.21875 64.359375 44.3125 64.359375 44.359375 64.3125 C 44.402344 64.167969 44.402344 63.929688 44.359375 63.796875 C 44.21875 63.476562 43.707031 63.515625 43.574219 63.183594 C 43.238281 62.542969 43.894531 62.03125 44.496094 62.03125 C 44.585938 62.0625 44.679688 62.0625 44.769531 62.117188 C 44.863281 62.222656 44.953125 62.351562 44.914062 62.542969 C 44.863281 62.644531 44.816406 62.710938 44.769531 62.828125 C 44.722656 63.148438 44.914062 63.375 45.238281 63.242188 C 46.164062 62.917969 45.894531 61.605469 45.101562 61.277344 C 45 61.230469 44.863281 61.230469 44.769531 61.183594 L 44.3125 61.183594 C 44.035156 61.230469 43.808594 61.324219 43.515625 61.230469 C 43.515625 60.710938 44.257812 60.800781 44.769531 60.710938 C 44.863281 60.710938 44.953125 60.660156 45.046875 60.613281 C 45.332031 60.390625 44.914062 59.773438 45.238281 59.648438 C 45.332031 59.589844 45.660156 59.554688 45.753906 59.648438 C 45.894531 59.871094 45.839844 60.148438 45.933594 60.429688 C 46.214844 61.324219 46.214844 62.394531 46.632812 63.242188 C 46.816406 63.242188 47.1875 63.148438 47.277344 63.003906 C 47.375 62.777344 46.816406 60.429688 46.722656 60.019531 C 46.675781 59.871094 46.542969 59.589844 46.582031 59.402344 C 46.582031 59.359375 47.375 59.128906 47.511719 59.359375 C 47.609375 59.5 47.835938 60.53125 47.835938 60.710938 C 47.789062 60.855469 47.550781 60.902344 47.550781 61.035156 C 47.414062 61.605469 48.34375 61.890625 48.714844 61.980469 C 48.714844 61.929688 48.855469 61.890625 48.90625 61.789062 C 48.90625 61.660156 48.90625 61.46875 48.949219 61.367188 C 49.039062 61.230469 49.269531 61.230469 49.40625 61.035156 C 49.503906 61.035156 49.269531 60.476562 49.226562 60.429688 C 49.09375 60.429688 48.949219 60.53125 48.808594 60.429688 C 48.585938 60.332031 48.34375 59.265625 48.4375 59.078125 C 48.535156 58.851562 49.269531 58.71875 49.503906 58.796875 C 49.648438 58.796875 49.785156 58.949219 49.828125 59.078125 C 49.96875 59.320312 49.878906 59.648438 49.589844 59.773438 C 49.550781 59.828125 49.453125 59.828125 49.40625 59.917969 C 49.316406 60.113281 49.367188 60.332031 49.40625 60.476562 C 49.550781 60.855469 49.917969 61.183594 50.347656 61.324219 C 50.625 61.421875 50.949219 61.46875 51.1875 61.367188 C 51.601562 61.277344 51.828125 61.035156 52.148438 60.75 L 52.148438 60.710938 C 52.527344 60.710938 52.199219 61.839844 52.988281 61.46875 C 53.140625 61.421875 53.222656 61.367188 53.277344 61.277344 C 53.355469 61.277344 53.222656 60.988281 53.222656 60.902344 C 52.988281 60.113281 52.613281 59.402344 52.382812 58.664062 C 52.292969 58.4375 52.109375 58.144531 52.148438 57.917969 C 52.148438 57.695312 53.871094 56.941406 54.195312 56.882812 L 54.195312 56.941406 C 54.238281 56.941406 54.195312 57.117188 54.148438 57.167969 C 54.058594 57.316406 53.820312 57.410156 53.644531 57.5 C 53.175781 57.722656 52.804688 58.144531 53.035156 58.761719 C 53.175781 59.03125 53.402344 59.179688 53.730469 59.230469 C 53.730469 59.5 53.59375 59.730469 53.644531 60.019531 C 53.6875 60.800781 54.382812 61.367188 55.214844 61.367188 C 55.402344 61.367188 55.589844 61.324219 55.777344 61.324219 L 55.777344 61.277344 C 55.820312 61.277344 55.777344 61.097656 55.777344 61.035156 C 55.730469 60.902344 55.730469 60.75 55.640625 60.660156 C 55.265625 60.332031 54.660156 60.660156 54.558594 59.972656 C 54.558594 59.773438 54.558594 59.648438 54.605469 59.453125 C 54.8125 59.128906 55.5 58.71875 55.777344 59.179688 C 55.867188 59.320312 55.777344 59.5 55.777344 59.648438 C 55.820312 59.972656 56.007812 60.28125 56.328125 60.019531 C 57.078125 59.402344 56.375 57.859375 55.359375 58.144531 C 55.082031 58.144531 54.839844 58.191406 54.605469 58.335938 C 54.46875 58.378906 54.328125 58.519531 54.195312 58.566406 C 54.058594 58.566406 53.960938 58.46875 53.871094 58.4375 C 53.871094 57.960938 55.082031 57.773438 55.265625 57.457031 C 55.449219 57.117188 54.894531 56.75 55.035156 56.453125 C 55.082031 56.371094 55.214844 56.335938 55.265625 56.277344 C 55.359375 56.226562 55.5 56.132812 55.679688 56.191406 C 55.867188 56.226562 56.328125 56.984375 56.328125 57.167969 C 56.328125 57.316406 56.242188 57.410156 56.195312 57.542969 C 56.148438 57.640625 56.195312 57.722656 56.242188 57.820312 C 56.375 58.058594 56.976562 58.191406 57.265625 58.191406 C 57.5 58.191406 57.871094 58.101562 57.769531 57.773438 C 57.769531 57.695312 57.679688 57.542969 57.730469 57.457031 C 57.820312 57.316406 57.960938 57.269531 58.101562 57.167969 C 58.191406 57.117188 58.277344 57.027344 58.417969 57.078125 C 58.835938 57.117188 59.113281 58.296875 59.582031 58.101562 C 59.675781 58.058594 59.816406 58.003906 59.859375 57.917969 C 59.953125 57.820312 60 57.722656 60 57.640625 "/>
<path style=" stroke:none;fill-rule:nonzero;fill:rgb(100%,100%,100%);fill-opacity:1;" d="M 36.503906 59.917969 C 36.503906 60.148438 36.46875 60.800781 36.277344 60.855469 L 35.996094 60.855469 C 35.855469 60.855469 35.675781 60.800781 35.53125 60.800781 L 35.53125 60.75 C 35.488281 60.75 35.488281 60.710938 35.488281 60.710938 C 35.53125 60.332031 35.582031 59.730469 35.765625 59.453125 C 35.855469 59.453125 35.949219 59.453125 35.996094 59.5 C 36.183594 59.5 36.375 59.554688 36.503906 59.648438 C 36.601562 59.648438 36.503906 59.871094 36.503906 59.917969 M 32.988281 59.179688 C 32.890625 59.359375 32.75 59.359375 32.65625 59.359375 C 32.519531 59.320312 32.335938 59.230469 32.234375 59.179688 L 32.234375 59.128906 C 32.382812 59.128906 32.519531 58.949219 32.65625 58.761719 C 32.703125 58.613281 32.75 58.4375 32.800781 58.378906 C 32.890625 58.4375 32.84375 58.566406 32.890625 58.71875 C 32.929688 58.796875 32.988281 58.851562 33.023438 58.949219 C 33.023438 59.03125 33.023438 59.128906 32.988281 59.179688 M 31.453125 58.335938 L 31.453125 58.296875 C 31.402344 58.296875 31.402344 58.296875 31.453125 58.253906 C 31.453125 58.144531 31.585938 57.960938 31.640625 57.917969 C 31.820312 57.960938 32.09375 58.003906 32.050781 58.296875 C 31.960938 58.519531 31.585938 58.566406 31.453125 58.335938 M 24.667969 55.664062 C 24.484375 56.003906 24.253906 56.558594 23.84375 56.707031 L 23.800781 56.707031 C 23.234375 56.839844 22.820312 56.277344 22.820312 55.816406 L 22.859375 55.816406 C 22.859375 55.722656 22.996094 55.761719 23.050781 55.761719 C 23.332031 55.761719 23.609375 55.664062 23.84375 55.535156 C 23.980469 55.484375 24.070312 55.398438 24.121094 55.289062 C 24.210938 55.160156 24.296875 54.972656 24.390625 54.832031 C 24.527344 54.871094 24.859375 55.101562 24.902344 55.289062 C 24.902344 55.433594 24.722656 55.578125 24.667969 55.664062 M 36.976562 58.851562 C 36.882812 58.851562 36.792969 58.851562 36.746094 58.796875 C 36.503906 58.796875 36.277344 58.71875 35.996094 58.664062 C 35.765625 58.613281 35.488281 58.566406 35.210938 58.519531 C 34.949219 58.46875 34.609375 58.4375 34.367188 58.335938 C 33.957031 58.101562 34.097656 57.542969 33.808594 57.269531 C 33.71875 57.167969 33.632812 57.117188 33.492188 57.027344 C 33.355469 56.984375 33.171875 56.984375 32.988281 57.027344 C 32.988281 57.316406 33.355469 57.722656 33.214844 57.960938 C 33.214844 58.058594 33.023438 58.101562 32.929688 58.253906 L 32.800781 58.253906 C 32.800781 58.058594 32.703125 57.859375 32.65625 57.695312 C 32.382812 57.316406 31.867188 57.167969 31.453125 57.199219 C 31.125 57.269531 30.84375 57.410156 30.707031 57.695312 C 30.621094 57.695312 30.65625 57.5 30.65625 57.410156 C 30.65625 57.316406 30.566406 57.199219 30.472656 57.167969 C 30.199219 57.078125 29.917969 56.941406 29.640625 56.839844 C 29.082031 56.609375 28.484375 56.335938 27.972656 56.003906 C 27.789062 55.914062 27.449219 55.816406 27.316406 55.621094 C 27.035156 55.289062 27.171875 54.277344 26.851562 54.121094 C 26.664062 54.078125 26.4375 54.078125 26.253906 54.121094 C 26.253906 54.417969 26.390625 54.691406 26.34375 55.023438 L 26.296875 55.023438 C 26.253906 55.023438 26.253906 55.0625 26.253906 55.023438 C 26.113281 55.023438 25.878906 54.832031 25.742188 54.789062 C 25.28125 54.507812 24.859375 54.121094 24.445312 53.855469 C 24.253906 53.707031 24.070312 53.527344 23.84375 53.390625 C 23.710938 53.300781 23.5625 53.203125 23.378906 53.203125 C 23.285156 53.34375 23.09375 53.484375 23.050781 53.671875 C 23.050781 54.046875 23.710938 54.222656 23.46875 54.597656 C 22.996094 55.398438 22.492188 54.277344 22.074219 55.214844 C 21.988281 55.398438 21.933594 55.621094 21.933594 55.859375 C 21.882812 56.453125 22.207031 57.167969 22.722656 57.410156 C 22.859375 57.457031 23.191406 57.542969 23.285156 57.722656 C 23.332031 57.917969 23.09375 58.144531 22.957031 58.296875 C 22.957031 58.4375 23.050781 58.519531 23.191406 58.613281 C 23.285156 58.664062 23.515625 58.894531 23.652344 58.796875 C 23.746094 58.796875 23.800781 58.761719 23.84375 58.664062 C 23.980469 58.46875 24.070312 58.253906 24.171875 58.101562 C 24.578125 57.457031 25.003906 56.839844 25.417969 56.226562 C 25.507812 56.085938 25.601562 55.859375 25.742188 55.816406 C 25.878906 55.761719 25.925781 55.816406 26.023438 55.859375 C 26.113281 55.941406 26.160156 56.003906 26.160156 56.132812 C 26.066406 56.707031 24.121094 58.988281 24.578125 59.402344 C 24.722656 59.5 25.003906 59.730469 25.132812 59.648438 C 25.28125 59.589844 25.832031 58.4375 25.925781 58.253906 C 26.296875 57.640625 26.664062 57.027344 27.035156 56.453125 C 27.171875 56.453125 27.316406 56.609375 27.449219 56.644531 C 27.597656 56.707031 27.789062 56.792969 27.878906 56.984375 C 27.972656 57.199219 27.789062 57.773438 27.691406 58.003906 C 27.597656 58.101562 27.542969 58.191406 27.511719 58.335938 L 27.359375 58.335938 C 27.359375 57.722656 26.714844 57.695312 26.4375 58.144531 C 26.160156 58.664062 26.4375 59.648438 27.125 59.589844 C 27.972656 59.554688 28.378906 58.519531 28.613281 57.917969 C 28.667969 57.773438 28.714844 57.542969 28.847656 57.457031 C 28.9375 57.351562 29.082031 57.5 29.175781 57.542969 C 29.082031 57.722656 28.996094 57.960938 28.902344 58.191406 C 28.714844 58.613281 28.566406 59.078125 28.34375 59.554688 C 28.246094 59.773438 27.789062 60.660156 27.832031 60.855469 C 27.878906 60.988281 28.109375 61.136719 28.246094 61.183594 C 28.34375 61.230469 28.519531 61.277344 28.566406 61.136719 C 28.714844 60.902344 28.804688 60.660156 28.902344 60.472656 C 29.21875 59.648438 29.589844 58.851562 29.96875 58.003906 C 30.105469 57.773438 30.382812 58.101562 30.519531 57.773438 L 30.621094 57.773438 C 30.621094 57.917969 30.566406 58.003906 30.566406 58.144531 C 30.566406 58.378906 30.65625 58.613281 30.621094 58.761719 C 30.519531 58.949219 30.144531 59.078125 30.003906 59.265625 C 29.5 59.917969 29.40625 60.855469 30.144531 61.421875 C 30.339844 61.5625 30.621094 61.605469 30.84375 61.695312 C 30.898438 61.695312 30.757812 62.117188 30.796875 62.222656 C 30.984375 62.222656 31.125 62.351562 31.359375 62.351562 C 31.402344 62.351562 31.402344 62.300781 31.453125 62.300781 C 31.722656 62.253906 31.640625 61.789062 31.773438 61.605469 C 31.867188 61.46875 32.050781 61.367188 32.191406 61.277344 C 32.191406 61.035156 32.050781 60.800781 31.960938 60.574219 C 31.773438 60.574219 31.585938 60.660156 31.453125 60.710938 C 31.175781 60.800781 30.9375 60.902344 30.707031 60.613281 C 30.621094 60.53125 30.566406 60.390625 30.566406 60.242188 C 30.621094 59.972656 30.898438 59.5 31.257812 59.589844 C 31.3125 59.589844 31.359375 59.648438 31.453125 59.648438 C 31.542969 59.6875 31.640625 59.730469 31.722656 59.773438 C 31.960938 59.871094 32.191406 59.917969 32.429688 60.0625 C 32.519531 60.113281 32.617188 60.195312 32.65625 60.242188 L 32.65625 60.28125 C 32.703125 60.390625 32.703125 60.574219 32.65625 60.800781 C 32.566406 61.230469 32.429688 61.695312 32.382812 61.929688 C 32.335938 62.0625 32.234375 62.300781 32.289062 62.449219 C 32.335938 62.582031 32.476562 62.582031 32.566406 62.644531 C 32.566406 62.644531 32.617188 62.679688 32.65625 62.679688 C 32.703125 62.679688 32.800781 62.710938 32.890625 62.679688 C 32.988281 62.679688 33.023438 62.582031 33.078125 62.496094 C 33.117188 62.253906 33.171875 62.03125 33.214844 61.742188 C 33.355469 61.230469 33.542969 60.660156 33.679688 60.148438 C 33.765625 59.828125 33.765625 59.402344 33.957031 59.128906 C 33.957031 58.988281 34.707031 59.230469 34.789062 59.265625 C 34.789062 59.402344 34.789062 59.554688 34.84375 59.6875 C 34.789062 59.972656 34.707031 60.429688 34.472656 60.613281 C 34.328125 60.800781 34.097656 60.75 34.046875 61.035156 C 33.957031 61.367188 34.519531 62.222656 34.84375 62.253906 C 35.441406 62.351562 35.027344 61.46875 35.816406 61.660156 C 35.855469 61.660156 35.949219 61.660156 35.996094 61.695312 C 36.085938 61.695312 36.144531 61.695312 36.183594 61.742188 C 36.558594 62.03125 35.765625 63.242188 36.414062 63.375 C 36.558594 63.375 36.648438 63.421875 36.792969 63.375 C 36.882812 63.335938 36.976562 63.289062 36.976562 63.148438 L 37.019531 63.148438 L 37.019531 62.300781 C 37.160156 61.46875 37.296875 60.613281 37.390625 59.730469 L 37.441406 59.730469 C 37.441406 59.6875 37.390625 59.6875 37.441406 59.6875 C 37.574219 59.6875 37.664062 59.6875 37.761719 59.648438 C 37.949219 59.554688 38.042969 59.179688 37.890625 59.03125 C 37.761719 58.894531 37.296875 58.851562 36.976562 58.851562 "/>
<path style=" stroke:none;fill-rule:nonzero;fill:rgb(100%,100%,100%);fill-opacity:1;" d="M 60.410156 58.003906 C 60.226562 58.144531 60.042969 58.253906 59.859375 58.378906 C 59.859375 58.4375 59.816406 58.4375 59.769531 58.472656 C 59.769531 58.613281 59.816406 58.71875 59.859375 58.761719 C 60 58.796875 60.183594 58.761719 60.410156 58.613281 C 60.6875 58.4375 61.015625 58.144531 61.070312 58.058594 C 61.015625 58.058594 60.828125 57.820312 60.6875 57.773438 C 60.605469 57.820312 60.507812 57.917969 60.410156 58.003906 "/>
</g>
</svg>
